<svg xmlns="http://www.w3.org/2000/svg" width="98.086" height="97.506" viewBox="0 0 98.086 97.506">
  <g id="Group_10" data-name="Group 10" transform="translate(-26.008 -27.369)">
    <g id="Group_9" data-name="Group 9" transform="translate(26.008 27.369)">
      <path id="Path_35" data-name="Path 35" d="M193.449,67.977a1.007,1.007,0,0,1-.213-.022,21.533,21.533,0,0,1-11.7-7.169A19.847,19.847,0,0,1,176.5,48.054V31.782a1.068,1.068,0,0,1,.846-1.043l15.887-3.348a1.1,1.1,0,0,1,.439,0l15.887,3.348a1.068,1.068,0,0,1,.846,1.043V48.054a19.847,19.847,0,0,1-5.041,12.732,21.533,21.533,0,0,1-11.7,7.169A1.024,1.024,0,0,1,193.449,67.977Z" transform="translate(-144.407 -27.369)" fill="#ffed83" fill-rule="evenodd"/>
      <path id="Path_36" data-name="Path 36" d="M256,67.977V27.369a1.106,1.106,0,0,1,.22.022L272.1,30.739a1.068,1.068,0,0,1,.846,1.043V48.054a19.847,19.847,0,0,1-5.04,12.732,21.533,21.533,0,0,1-11.7,7.169,1.025,1.025,0,0,1-.214.022Z" transform="translate(-206.954 -27.369)" fill="#fbe464" fill-rule="evenodd"/>
      <path id="Path_37" data-name="Path 37" d="M216.555,93.871a1.065,1.065,0,0,1-.755-.311l-5.883-5.885a1.066,1.066,0,0,1,1.508-1.507l5.131,5.13L227.57,80.281a1.066,1.066,0,1,1,1.508,1.508l-11.769,11.77A1.064,1.064,0,0,1,216.555,93.871Z" transform="translate(-170.455 -68.752)" fill="#343739" fill-rule="evenodd"/>
      <path id="Path_38" data-name="Path 38" d="M160.414,265.2c4.362,2.533.748,9.3-3.911,6.8l1.771,1.031c4.45,2.591.533,9.386-3.947,6.778l-2.226-1.3c4.462,2.61.516,9.376-3.954,6.773l-1.774-1.033c4.438,2.6.521,9.379-3.954,6.773-6.506-3.788-32.145-18.753-33.713-20.7l-6.645-8.3a1.064,1.064,0,0,1-.108-1.22l11.122-19.264a1.066,1.066,0,0,1,1.312-.529l9.677,3.457c7.728,2.75,28.012,15.906,36.35,20.733ZM152.1,278.5" transform="translate(-85.646 -195.402)" fill="#dbb598" fill-rule="evenodd"/>
      <path id="Path_39" data-name="Path 39" d="M152.685,284.692l-8.044-4.676a1.064,1.064,0,0,0-1.066,1.841l6.1,3.546c1.775,2.447-.857,5.038-4,3.94-7.9-4.607-31.133-18.613-32.621-20.464l-6.645-8.3a1.064,1.064,0,0,1-.108-1.221L116.5,241.536a1.066,1.066,0,0,1,1.312-.529l9.677,3.457a49.861,49.861,0,0,1,5.851,2.7c9.356,5.087,22.326,13.391,28.58,17.01,3.321,1.928,2.019,6.311-.848,7.189-.121.037-6.759-3.875-7.538-4.321a1.064,1.064,0,0,0-1.066,1.841l9.055,5.191a3.492,3.492,0,0,1-3.293,4.886l-9.14-5.43a1.064,1.064,0,0,0-1.066,1.841l7.424,4.41C156.671,283.713,153.674,284.429,152.685,284.692Z" transform="translate(-89.068 -195.402)" fill="#f3c9a9" fill-rule="evenodd"/>
      <path id="Path_40" data-name="Path 40" d="M138.746,353.076a5.01,5.01,0,0,1,.511,1.022,4.59,4.59,0,0,1,4.193-1.034,5.428,5.428,0,0,1,3.274,2.3,4.636,4.636,0,0,1,.73,3.279,4.911,4.911,0,0,1,1.578.115,5.428,5.428,0,0,1,3.274,2.3,4.661,4.661,0,0,1-.082,5.3,5.045,5.045,0,0,1,.956.131,5.428,5.428,0,0,1,3.274,2.3,4.683,4.683,0,0,1-.188,5.457l-1.964,2.793a4.681,4.681,0,0,1-5.07,2.024,5.428,5.428,0,0,1-3.274-2.3,4.986,4.986,0,0,1-.563-1.175,4.6,4.6,0,0,1-3.822.735,5.429,5.429,0,0,1-3.274-2.3,4.829,4.829,0,0,1-.733-1.886,4.7,4.7,0,0,1-2.742.151,5.428,5.428,0,0,1-3.274-2.3,4.6,4.6,0,0,1-.634-3.731,4.96,4.96,0,0,1-1.344-.131,5.428,5.428,0,0,1-3.274-2.3,4.683,4.683,0,0,1,.189-5.457l3.918-5.57a4.682,4.682,0,0,1,5.068-2.025,5.428,5.428,0,0,1,3.276,2.3Z" transform="translate(-104.292 -281.705)" fill="#d9b7a9" fill-rule="evenodd"/>
      <path id="Path_41" data-name="Path 41" d="M139.223,357.314c.012.03.022.059.033.089q.084-.075.17-.144a4.784,4.784,0,0,1,2.232.006,5.428,5.428,0,0,1,3.274,2.3,4.636,4.636,0,0,1,.73,3.279,4.912,4.912,0,0,1,1.578.115,5.428,5.428,0,0,1,3.274,2.3,4.661,4.661,0,0,1-.082,5.3,5.042,5.042,0,0,1,.956.131,5.428,5.428,0,0,1,3.274,2.3,4.683,4.683,0,0,1-.188,5.457l-1.964,2.793a5.582,5.582,0,0,1-1.047,1.134,4.787,4.787,0,0,1-2.232-.006,5.428,5.428,0,0,1-3.274-2.3,4.984,4.984,0,0,1-.563-1.175,4.6,4.6,0,0,1-3.822.735,5.429,5.429,0,0,1-3.274-2.3,4.829,4.829,0,0,1-.733-1.886,4.7,4.7,0,0,1-2.742.151,5.427,5.427,0,0,1-3.274-2.3,4.6,4.6,0,0,1-.634-3.731,4.96,4.96,0,0,1-1.344-.131,5.429,5.429,0,0,1-3.274-2.3,4.683,4.683,0,0,1,.189-5.457l3.918-5.57a5.579,5.579,0,0,1,1.047-1.134,4.788,4.788,0,0,1,2.23,0,5.428,5.428,0,0,1,3.276,2.3,5.012,5.012,0,0,1,.511,1.022A4.6,4.6,0,0,1,139.223,357.314Z" transform="translate(-104.292 -285.01)" fill="#f1cbbc" fill-rule="evenodd"/>
      <path id="Path_42" data-name="Path 42" d="M153.1,258.41a4.993,4.993,0,0,1,.46.942,4.544,4.544,0,0,1,2.292-1.107l-10.771,14.8a4.5,4.5,0,0,1,.136-1.529,4.961,4.961,0,0,1-1.344-.131q-.092-.021-.182-.046Zm8.377,3.078-11.465,16.187a4.562,4.562,0,0,0,1.854-.279,4.638,4.638,0,0,0,.263.972l10.257-14.482a4.72,4.72,0,0,0-.631.016A4.512,4.512,0,0,0,161.48,261.488Zm5.76,6.235a4.707,4.707,0,0,1-.712,3.9q.241.01.481.043l-7.086,9.757a4.836,4.836,0,0,1-.226-.569,4.5,4.5,0,0,1-2.623.87Zm27.721-9.372a3.214,3.214,0,0,1-3.171-.027l-20.6-11.924c-1.98-1.146-4.435.218-6.26,1.088l-.265.126-.6,1.237c-1.085,2.3-2.332,5.076-4.668,6.337q-.46.248-.94.456c-1.833.793-4.164,1.24-5.949.078a4.71,4.71,0,0,1-1.917-4.4l.432-9.088a3.215,3.215,0,0,1,.963-2.145c2.894-2.835,6.316-6.738,9.9-8.585,3.109-1.6,6.1-1.52,9.463-.781a30.815,30.815,0,0,0,16.013-.262,3.215,3.215,0,0,1,3.7,1.472l10.991,19.037.013.023a3.212,3.212,0,0,1-1.347,4.422Z" transform="translate(-118.598 -186.958)" fill="#d9b7a9" fill-rule="evenodd"/>
      <path id="Path_43" data-name="Path 43" d="M175.991,251.683q0-.182.009-.364l.432-9.088a3.215,3.215,0,0,1,.963-2.145c2.894-2.835,6.316-6.738,9.9-8.585,3.109-1.6,6.1-1.52,9.463-.781a30.815,30.815,0,0,0,16.013-.262,3.215,3.215,0,0,1,3.7,1.472l10.46,18.118a3.186,3.186,0,0,1-1.7,2.293l-5.76,2.941a3.214,3.214,0,0,1-3.171-.028l-20.6-11.924c-1.98-1.146-4.435.218-6.26,1.088l-.265.126-.6,1.237c-1.085,2.3-2.332,5.076-4.668,6.337q-.46.248-.94.456c-1.833.793-4.164,1.24-5.949.078a3.944,3.944,0,0,1-1.03-.968Z" transform="translate(-144.009 -186.958)" fill="#f1cbbc" fill-rule="evenodd"/>
      <path id="Path_44" data-name="Path 44" d="M349.018,193.45l7.544-4.355a4.454,4.454,0,0,1,6.04,1.562c.014.021.028.043.041.065l13.24,22.932a4.455,4.455,0,0,1-1.632,6.081l-7.455,4.3a1.05,1.05,0,0,1-.164.1,4.459,4.459,0,0,1-5.958-1.6,1.061,1.061,0,0,1-.082-.141l-13.2-22.863a4.455,4.455,0,0,1,1.562-6.04c.021-.015.043-.028.065-.041Z" transform="translate(-278.391 -154.14)" fill="#e4404d" fill-rule="evenodd"/>
      <path id="Path_45" data-name="Path 45" d="M352.182,193.45l7.544-4.355a4.454,4.454,0,0,1,6.04,1.562c.014.021.028.043.041.065l13.24,22.932a4.492,4.492,0,0,1,.249.5,4.435,4.435,0,0,1-1.369,1.228l-7.455,4.3a1.072,1.072,0,0,1-.164.1,4.458,4.458,0,0,1-5.959-1.6,1.05,1.05,0,0,1-.082-.141l-13.2-22.864a4.489,4.489,0,0,1-.249-.5,4.429,4.429,0,0,1,1.3-1.188Z" transform="translate(-281.555 -154.14)" fill="#fd4755" fill-rule="evenodd"/>
      <path id="Path_46" data-name="Path 46" d="M45.924,189.094l7.544,4.355c.022.013.044.027.065.041a4.454,4.454,0,0,1,1.562,6.04l-13.2,22.863a1.087,1.087,0,0,1-.082.141,4.459,4.459,0,0,1-5.959,1.6,1.053,1.053,0,0,1-.164-.1l-7.455-4.3a4.455,4.455,0,0,1-1.631-6.081l13.24-22.932c.013-.022.027-.044.041-.065a4.454,4.454,0,0,1,6.04-1.562Z" transform="translate(-26.008 -154.14)" fill="#56a5e6" fill-rule="evenodd"/>
      <path id="Path_47" data-name="Path 47" d="M46.179,189.094l7.544,4.355c.022.013.044.027.065.041a4.443,4.443,0,0,1,1.065.893,4.429,4.429,0,0,1-.526,1.437l-13.2,22.863a1.087,1.087,0,0,1-.082.141,4.459,4.459,0,0,1-5.959,1.6,1.053,1.053,0,0,1-.164-.1l-7.455-4.3a4.444,4.444,0,0,1-1.134-.933,4.43,4.43,0,0,1,.526-1.437L40.1,190.722c.013-.022.027-.044.041-.065a4.454,4.454,0,0,1,6.04-1.562Z" transform="translate(-26.264 -154.14)" fill="#60b7ff" fill-rule="evenodd"/>
    </g>
  </g>
</svg>
