<svg xmlns="http://www.w3.org/2000/svg" width="80.944" height="84.578" viewBox="0 0 80.944 84.578">
  <g id="Group_8" data-name="Group 8" transform="translate(-10.998 0)">
    <path id="Path_11" data-name="Path 11" d="M51.47,22A40.471,40.471,0,0,0,20.945,89.041L34,98.987A40.476,40.476,0,1,0,51.47,22Z" transform="translate(0 -18.362)" fill="#ffed83"/>
    <path id="Path_12" data-name="Path 12" d="M104.358,322.81l-.1-.186a2.237,2.237,0,0,1,.886-3.027l.124-.068a2.336,2.336,0,1,1-2.244-4.1,2.336,2.336,0,0,1-2.244-4.1,2.336,2.336,0,1,1-2.244-4.1l3.044-1.666-.464-.848a2.481,2.481,0,0,0-1.624-1.227,6.35,6.35,0,0,0-6.633,2.577c-1.33,1.976.008-.434-3.365,7.3a2.481,2.481,0,0,1-1.095,1.212L71.211,323.9a40.607,40.607,0,0,0,13.06,9.946l12.141-6.585a2.48,2.48,0,0,1,1.082-.3l3.691-.162a2.481,2.481,0,0,0,1.082-.3l4.879-2.671-.157.038A2.239,2.239,0,0,1,104.358,322.81Z" transform="translate(-50.266 -253.224)" fill="#fcad6d"/>
    <path id="Path_13" data-name="Path 13" d="M210.85,301.03l-12.119-22.206-8.517,1.962,13.259,24.293a4.208,4.208,0,1,0,7.377-4.049Z" transform="translate(-149.611 -232.764)" fill="#3c58a0"/>
    <path id="Path_14" data-name="Path 14" d="M197.86,286.269a2.959,2.959,0,0,1,1.933-4.3l.581-.134-1.643-3.011-8.516,1.962,13.259,24.293a4.207,4.207,0,0,0,5.595,1.726Z" transform="translate(-149.611 -232.764)" fill="#2a428c"/>
    <g id="Group_7" data-name="Group 7" transform="translate(46.801 50.03)">
      <path id="Path_15" data-name="Path 15" d="M268.437,387.135l-.1-.186a2.237,2.237,0,0,1,.886-3.027l6.267-3.431a2.237,2.237,0,0,1,3.027.886l.1.186a2.237,2.237,0,0,1-.886,3.027l-6.267,3.431A2.237,2.237,0,0,1,268.437,387.135Z" transform="translate(-261.401 -367.439)" fill="#f9ba8f"/>
      <path id="Path_16" data-name="Path 16" d="M255.183,358.356a2.343,2.343,0,0,1,.928-3.171l7.514-4.113a2.336,2.336,0,0,1,2.244,4.1l-7.514,4.113A2.343,2.343,0,0,1,255.183,358.356Z" transform="translate(-250.411 -342.869)" fill="#f9ba8f"/>
      <path id="Path_17" data-name="Path 17" d="M230.262,314.249a2.343,2.343,0,0,1,.928-3.171l7.982-4.369a2.336,2.336,0,0,1,2.244,4.1l-7.982,4.369a2.343,2.343,0,0,1-3.171-.928Zm8.856-10.175a2.343,2.343,0,0,0-3.171-.928l-7,3.832a2.336,2.336,0,1,0,2.244,4.1l7-3.832A2.343,2.343,0,0,0,239.117,304.074Z" transform="translate(-227.732 -302.861)" fill="#f9ba8f"/>
    </g>
    <path id="Path_18" data-name="Path 18" d="M176.855,314.409a4.258,4.258,0,0,0,3.519,4.253c1.855.351,3.732-2.007,3.732-2.007,2.348-3.28,2.36-5.7,2.2-6.756a.082.082,0,0,1,.154-.052l.6,1.094a3.321,3.321,0,0,0,.8.969,2.479,2.479,0,0,0,3.94-1.946c.024-.985-.419-1.415-2.494-5.248a2.512,2.512,0,0,0-.678-.786l0,0a2.489,2.489,0,0,0-.944-.439,6.35,6.35,0,0,0-6.633,2.577c-1.33,1.976.008-.434-3.365,7.3A2.481,2.481,0,0,1,176.855,314.409Z" transform="translate(-138.459 -253.222)" fill="#fcad6d"/>
    <path id="Path_19" data-name="Path 19" d="M248.934,325.706l1.067,1.95a1.163,1.163,0,0,0,1.434.524,2.492,2.492,0,0,0,.419-1.324c.021-.875-.344-1.281-1.423-3.293l-1.037.568A1.163,1.163,0,0,0,248.934,325.706Z" transform="translate(-198.513 -270.114)" fill="#f9dfcd"/>
    <path id="Path_20" data-name="Path 20" d="M203.251,341.589a.725.725,0,0,1,.156-.887c4.259-3.789,3.628-8,3.622-8.043a.725.725,0,1,1,1.431-.233c.033.2.759,5.046-4.089,9.36a.725.725,0,0,1-1.12-.2Z" transform="translate(-160.422 -277.003)" fill="#fd995b"/>
    <path id="Path_21" data-name="Path 21" d="M100.973,179.992,96.2,159.29a1.886,1.886,0,0,1-.047-.412,11.048,11.048,0,0,0,4.953,21.5,1.889,1.889,0,0,1-.138-.391Z" transform="translate(-64.388 -132.632)" fill="#e9efff"/>
    <path id="Path_22" data-name="Path 22" d="M96.875,248.708a11.054,11.054,0,0,0,11.539,5.414,1.88,1.88,0,0,1-.138-.391l-1.449-6.291a4.335,4.335,0,0,1-.392-.231S102.284,251.592,96.875,248.708Z" transform="translate(-71.691 -206.372)" fill="#d3dcfb"/>
    <path id="Path_23" data-name="Path 23" d="M244.221,31.8a35.016,35.016,0,0,1-16.389,10.75c.008.029.018.056.024.086l4.769,20.7c.007.029.01.058.016.088a35.015,35.015,0,0,1,19.44,2.5L262.339,70.4,251.487,23.287Z" transform="translate(-181.015 -19.44)" fill="#e9efff"/>
    <path id="Path_24" data-name="Path 24" d="M264.359,28.177,269.51,49a5.147,5.147,0,0,1-5.362,6.377,47.749,47.749,0,0,0-15.653,1.387,2.012,2.012,0,0,1-.244.411l1.42,6.165c.007.029.01.058.016.088a35.015,35.015,0,0,1,19.44,2.5L279.385,70.4,268.532,23.287Z" transform="translate(-198.06 -19.44)" fill="#d3dcfb"/>
    <path id="Path_25" data-name="Path 25" d="M426.712,120.2a13.912,13.912,0,0,1-8.163-1.987l3.2,13.9a13.912,13.912,0,0,1,6.471-5.357,1.623,1.623,0,0,0,.964-1.859l-.793-3.445A1.624,1.624,0,0,0,426.712,120.2Z" transform="translate(-340.227 -98.683)" fill="#e9efff"/>
    <path id="Path_26" data-name="Path 26" d="M428.719,122.866a21.564,21.564,0,0,0-2.27,1.071,3.017,3.017,0,0,1-4.389-1.97l-.556-2.415a11.745,11.745,0,0,1-2.955-1.341l3.2,13.9a13.912,13.912,0,0,1,6.471-5.357,1.623,1.623,0,0,0,.964-1.859Z" transform="translate(-340.227 -98.682)" fill="#d3dcfb"/>
    <path id="Path_27" data-name="Path 27" d="M382.214,53.822a2.23,2.23,0,0,1-2.674-1.673L368.157,2.732a2.23,2.23,0,1,1,4.346-1l11.383,49.418A2.23,2.23,0,0,1,382.214,53.822Z" transform="translate(-298.111)" fill="#ff4155"/>
    <path id="Path_28" data-name="Path 28" d="M418.91,211l-4.5-19.516a2.421,2.421,0,0,1-4.361.937L414.563,212a2.23,2.23,0,0,0,4.346-1Z" transform="translate(-333.135 -159.854)" fill="#e80054"/>
    <path id="Path_29" data-name="Path 29" d="M148.251,131.2l-12.009,2.766a1.878,1.878,0,0,0-1.408,2.251l4.769,20.7a1.877,1.877,0,0,0,2.251,1.408l12.009-2.766a1.877,1.877,0,0,0,1.408-2.251l-4.769-20.7A1.877,1.877,0,0,0,148.251,131.2Z" transform="translate(-103.339 -109.489)" fill="#ff4155"/>
    <path id="Path_30" data-name="Path 30" d="M167.4,227.049l-9.4,2.166s-1.121,1.634-3.246.23l1.519,6.6a1.877,1.877,0,0,0,2.251,1.408l12.009-2.766a1.877,1.877,0,0,0,1.408-2.251l-1.5-6.5A2.288,2.288,0,0,1,167.4,227.049Z" transform="translate(-120.004 -188.608)" fill="#e80054"/>
    <path id="Path_31" data-name="Path 31" d="M169.871,118.221a1.24,1.24,0,0,1-1.206-.961l-.82-3.562a1.239,1.239,0,1,1,2.415-.556l.821,3.562a1.239,1.239,0,0,1-1.208,1.517Z" transform="translate(-130.91 -93.649)" fill="#bec8f7"/>
    <path id="Path_32" data-name="Path 32" d="M158.129,111.552a1.239,1.239,0,0,1-.277-2.446l3.494-.8a1.239,1.239,0,0,1,.556,2.415l-3.494.8a1.237,1.237,0,0,1-.279.032Z" transform="translate(-121.792 -90.383)" fill="#e9efff"/>
    <path id="Path_33" data-name="Path 33" d="M156.475,152.9a1.239,1.239,0,0,1,.929-1.485l6.988-1.61a1.239,1.239,0,0,1,.556,2.415l-6.988,1.61A1.239,1.239,0,0,1,156.475,152.9Zm.978,4.246a1.239,1.239,0,0,1,.929-1.485l6.988-1.61a1.239,1.239,0,1,1,.556,2.415l-6.988,1.61A1.239,1.239,0,0,1,157.453,157.15Zm.978,4.246a1.239,1.239,0,0,1,.929-1.485l6.988-1.61a1.239,1.239,0,1,1,.556,2.415l-6.988,1.61A1.239,1.239,0,0,1,158.431,161.4Zm.978,4.246a1.239,1.239,0,0,1,.929-1.485l6.988-1.61a1.239,1.239,0,0,1,.556,2.415l-6.988,1.61a1.239,1.239,0,0,1-1.485-.929Zm.978,4.246a1.239,1.239,0,0,1,.929-1.485l6.988-1.61a1.239,1.239,0,0,1,.556,2.415l-6.988,1.61A1.239,1.239,0,0,1,160.387,169.888Z" transform="translate(-121.419 -125.035)" fill="#cc0053"/>
    <path id="Path_34" data-name="Path 34" d="M96.412,383.254c-11.252-1.268-7.75-12.852-7.75-12.853a2.48,2.48,0,0,1-.265.17l-17.187,9.322a40.607,40.607,0,0,0,13.06,9.946Z" transform="translate(-50.266 -309.214)" fill="#fd995b"/>
  </g>
</svg>
