<svg xmlns="http://www.w3.org/2000/svg" xmlns:xlink="http://www.w3.org/1999/xlink" width="449" height="526" viewBox="0 0 449 526">
  <defs>
    <clipPath id="clip-path">
      <rect id="Rectangle_117" data-name="Rectangle 117" width="449" height="526" transform="translate(320 5117)" fill="#ffca10"/>
    </clipPath>
  </defs>
  <g id="Mask_Group_1" data-name="Mask Group 1" transform="translate(-320 -5117)" clip-path="url(#clip-path)">
    <rect id="Rectangle_111" data-name="Rectangle 111" width="449" height="526" transform="translate(320 5117)" fill="#ffca10"/>
    <path id="Path_230" data-name="Path 230" d="M488.636,571.279l41.141,7.688-1.662,8.948h7.48l17.938-97.892,4.156,97.892H565.1l-1.385-33.006,18.839-.53,1.939,33.537h3.671l-1.939-33.6,28.189-.729v-7.025l-23.2.6-1.8-11.864,25,.729v-3.513l-25.557-.729-3.463-23,15.1-15.907,13.852,8.417v-4.242l-11.359-6.893,11.359-12v-5.236l-29.713,31.416c-1.593-8.682-5.541-30.819-7.2-40.164l36.985,6.031v-7.158L595.99,460l4.363-26.312c4.918.994,9.627,1.922,14.06,2.784v-7.224l-10.528-2.055L614.414,414.4V402.934L595.852,425.6l-24.033-4.772,10.251-68.8,32.276,5.567V345.67l-3.394-.6,3.394-22.2V274.488l-3.74,24.523-34.353-7.953c1.731-8.682,6.3-31.681,8.034-40.429l30.059,5.435V248.9l-19.393-3.513,15.307-79.732,4.086.729v-12L604.3,152.6l2.7-17.961,7.342-1.458v-3.579l-6.788,1.326L613.513,91.3l.831.133V2.882L612.128,17.53l-22.995,1.326L588.095-.034h-3.671l1.108,19.154L566,20.247,565.1-.034h-7.411l.9,20.745L531.508,22.3,535.595-.034h-7.48l-3.948,21.673L483.3,11.233,485.45-.034H472.983l-4.156,21.606-28.12,4.573L437.244-.034h-7.411l3.532,27.306-27.5,4.441-11.774-23c7-1.922,18.77-5.236,31.514-8.749H399.22l-8.381,2.32-1.247-2.32H375.879l2.84,5.567C374.425,6.66,368.676,8.185,363,9.709c-.9-2.386-2.147-5.9-3.6-9.809h-3.879l3.948,10.737c-6.857,1.789-12.952,3.446-15.376,4.109l-17.731-5.3,1.177-9.478h-3.74l-.97,8.417L300.177,1.689,300.8-.034h-7.826L290,7.721,270.6-.034h-6.788l-6.026,14.78L230.016,5.534q1.766-2.784,3.325-5.567h-8.588A146.438,146.438,0,0,1,211.246,19.12L207.921-.034h-7.48l.9,5.3L182.849,15.807,173.083-.034h-4.294l22.925,37.182c-.554.331-1.108.729-1.593,1.06-7.342,4.573-16.9,7.953-27.843,10.472L165.949-.034h-3.671l-3.74,49.576c-4.017.862-8.173,1.524-12.467,2.187L142.054-.034h-7.411l1.316,17.5L91.7,12.294,91.424-.034H84.014L84.291,11.5,74.109,10.306,63.166-.034H57.9l10.251,9.61L30.89,5.268l.693-5.3h-3.74L27.22,4.8,12.4,3.081l.485-3.115H.416L0,2.882V91.429L31.86,97l5.472,25.185L0,129.605v3.579l11.151-2.253,3.6,26.113L0,154.393v12l16.207,2.916L3.879,249.435,0,248.772v7.158l2.77.53L0,274.488v48.383l10.043-65.084,34.7,6.23-9.212,87.752L0,345.67V357.6l32.622,5.567L0,402.934v11.4l32.345-39.5-8.865,59.053L0,429.246v7.224c9.489,1.856,17.454,3.446,22.441,4.441L18.7,466.1,0,463.048v7.158l2.216.4L0,472.857v5.236L6.511,471.2l11.151,1.856-4.779,31.813L0,497.048v4.176l12.328,7.489-3.6,23.992L0,532.44v3.513l8.173.265L6.649,546.292l-6.649.2v7.025l5.61-.133L.416,587.848h12.4l5.056-33.934,14.06,1.789-4.156,32.145h3.74l2.84-22,23.549,22h5.264L34.977,561.4l.693-5.236,47.721,6.1.623,25.583h7.411L90.8,563.193l42.388,5.435,1.454,19.221h7.411l-.762-9.875,22.025-3.579-1.039,13.521h3.671l.277-4.043,2.493,4.043h4.294l-6.3-10.273.277-3.844,30.128-4.9,3.324,19.022h7.48l-10.389-59.65,52.5,3.844c-5.749,16.835-14.2,37.513-25.28,55.806h8.588a258.378,258.378,0,0,0,12.121-23.86L269.841,573l-6.095,14.912h6.788l-2.424-.994L280.368,556.9l22.441,5.037-9.835,25.915H300.8l18.7-49.178,10.181-1.193-5.887,50.437h3.74l2.355-20.148,16.692-4.374,9,24.523h3.879c-3.463-9.345-7.757-21.076-9.35-25.451l11.22-2.916,14.545,28.367h13.714l-6.234-12.2,48.9-14.515-2.7,18.292-30.336,8.351h26.388c1.385-.4,2.7-.729,4.086-1.127l.139,1.127h7.411l-.416-3.115c15.03-4.175,29.851-8.285,38.717-10.8l-2.7,13.918h12.467Zm-6.649-30.488-38.509-5.037,3.879-26.047,39.34,6.429Zm-82.351-46,2.632-14.316,40.933,7.357-2.078,13.719Zm40.448,13.719-1.662,11.135-27.081-3.712,2.7-11.6ZM303.432,494.6l-18.146-.464,2.77-14.979,15.376,7.092a26.7,26.7,0,0,0-.346,4.109A17.289,17.289,0,0,0,303.432,494.6Zm5.61,11.93a24.074,24.074,0,0,0,3.255,3.181l-13.852,17.431-13.09-21.275Zm-.97-31.15L273.1,459.27l38.024-13.322,5.749,21.938A26.75,26.75,0,0,0,308.073,475.376ZM65.452,438.061l4.5-9.676,55.963-12.792-7.965,26.71Zm50.7,11.2-3.74,18.359-13.644-3.314.97-16.371ZM38.232,60.345C50.63,61.207,65.105,62,80.2,62.2l-.139,3.513L36.431,78.638Zm-15.1-8.351,4.156-22.336,40.1,4.838c-.416,4.175-1.524,14.647-2.078,20.148C49.245,54.049,34.561,53.055,23.133,51.994Zm95.1,47.057,4.779,40.628c-10.943,1.193-43.842,4.838-55.547,6.164l5.125-42.617ZM79.858,69.491,78.68,95.6l-9.281.862-8.588-1.524L58.318,75.854Zm43.5,73.7,1.732,14.647-59.98,7.025,1.87-15.443Zm252.664-2.85-6.788,23L341.249,173.68c-4.086-10.936-7.342-21.673-9.142-28.168Zm-38.44-22.2,21.471-2.519L361.4,130.2l-22.094,2.585ZM444.309,267.728,418.336,261.9l12.952-38.772,22.3,3.977C452,234.258,448.049,251.556,444.309,267.728ZM457.261,227.7l27.427,4.9-35.877,32.078Zm-244.976,8.086,42.457-3.844,4.641,17.63-50.838,1.458Zm0-30.687,38.855,12.99,1.8,6.893-37.47,3.38Zm193.169,56.734-6.926,20.745L368.26,271.108l8.1-19.419ZM377.68,248.441l7-16.834c10.389,5.7,20.5,10.737,26.319,13.521l-4.433,13.322Zm-19.809,28.566-14.2-11.532,17.107-23.2,8.935,6.23Zm-1.455,3.446-.693,1.657-35.739,2.916L302.047,262.16l17.8-11.466Zm-40.033,5.965-30.2,16.636-6.926-26.18L299,264.215C302.255,268.391,312.782,281.779,316.384,286.418Zm-16.623-27.041c-1.524-1.856-4.433-5.368-6.511-7.887l14.891-10.273,8.727,7.092Zm-3.047,1.988L278.29,273.229l-2.563-9.61,14.545-10.008ZM276.836,315.58l-32.483-9.213,24.38-21.408ZM240.2,305.175l-41.9-11.93,9.42-38.706,52.638-1.458,7.411,28.035Zm-45.574-74.894-5.749-46.593,16.415-2.32L211.8,228.69Zm-.346,7.092,14.129-1.259-6.788,27.9-13.991-4.308Zm6.511,30.09-6.026,24.788-15.445-4.374,7.342-24.722ZM196.77,300.2l-19.947,51.962L162,346.267l15.307-51.63Zm3.532.994,19.185,5.435-8.242,23.595c-5.472-1.591-15.653-4.639-19.809-5.9Zm16.761,34.6c3.74,1.259,10.251,3.447,17.939,6.031L222.882,368.4,206.4,366.548Zm1.108-3.38,8.311-23.794,28.466,8.086-6.857,25.716Zm40.31-14.647,20.363,5.833,8.45,32.012-35.739-12Zm28.6-11.135,15.722-8.682L310.5,324.2l-20.086-4.9Zm19.047-10.538,13.575-7.489,34.561-2.85-18.562,44.472-20.986-5.1Zm45.712,14.515,16.553,5.3-5.956,21.01-19.531-4.772Zm1.316-3.314,13.714-32.874,30.475,11.532-10.736,32.012Zm45.5,13.256,30.89,5.3-25.9,41.357-15.93-13.852Zm3.809-11.267,14.752-44.075,26.319,5.965c-2.632,11.6-5.056,22.07-6.164,27.108l-22.995,13.057Zm44.258-35.525,11.012,12.858-16,9.08ZM413.28,238.367c-12.259-5.965-40.1-20.016-52.915-30.554a20.882,20.882,0,0,1-1.8-1.657l29.644-24.324,33.245,32.145Zm-44.673-49.708-9.7-17.762,11.428-4.242,12.536,10.207Zm-2.909,2.386-11.567,9.544c-4.294-6.3-8.242-14.846-11.636-23.529l12.952-4.772Zm-10.112,22.137c5.679,4.706,13.991,9.942,22.648,14.846l-7.065,17.033L337.024,221.4l15.792-10.87A34.13,34.13,0,0,0,355.586,213.181Zm2.216,26.975-16.969,23-29.574-23.992,22.579-15.575Zm-45.02-10.737-6.58-20.944,16.345-7.489L329.4,218.02Zm-7.688-24.39-5.264-16.7L311.4,173.282l9.835,24.324Zm1.385,28.7L273.858,256.2l-11.774-44.737,35.392-6.5Zm-45.366-25.649-13.852-52.691,33.314-3.91,15.791,50.04Zm-11.082,5.9-38.3-12.792-2.77-20.347,31.167-4.441Zm-61.573-33.8-2.216-17.63,48.69-5.7,4.294,16.172ZM184.1,150.947l-3.74-15.244,52.015,2.32,1.939,7.025Zm2.632,75.358-34.977-38.441L150.3,166.787l28.6-3.38Zm-37.816-71.248-2.493-15.111c9.9-1.458,21.055-3.115,26.527-3.91l3.879,15.774Zm-2.286,12.129L148.011,187,132.5,188.46l.554-19.618Zm2.563,23.2,36.985,40.628-54.993,4.971,1.177-44.075C137.344,191.509,146.279,190.647,149.188,190.382Zm37.193,47.72L156.045,340.235l-14.891-8.02,31.652-92.921ZM159.923,353.093l37.955,15.178L193.654,380.4,156.6,364.162Zm20.224.464,9.9-25.848,19.947,5.9-9.766,27.969Zm24.934,16.3,16.761,1.922-3.809,23.794-17.8-11.665Zm20.64.862,12.744-27.77c10.043,3.38,21.54,7.224,31.444,10.538L258.759,407.9l-14.129,5.17-23.272-15.31Zm56.1,36.254,6.233,21.408-26.25,10.472-11.982-20.148Zm-18.977-.6,10.6-51.763c6.026,1.988,11.29,3.778,15.03,5.037l9,34.067Zm29.644-79.334,41,10.008-10.6,13.388-22.648,6.164Zm44.95,11,38.717,9.478-43.15,21.01L326.15,352.3Zm28.535-.331,5.887-20.745,13.644,4.374-6.58,19.552Zm20.5,19.353,34.63,30.024-2.563,4.706c-17.523-3.248-32.9-6.031-41.141-7.556ZM406.423,369.6l27.012-43.08,18.7,3.247-29.367,54.082Zm49.591-39.236,5.956,1.06-11.636,66.211c-9.35-1.723-18.908-3.513-28.051-5.17Zm2.078,44.6,30.336,6.959-3.671,22.07c-9.142-1.657-19.739-3.645-30.752-5.634Zm4.571,32.145,20.571,3.778-9.142,36.453-16.969-3.314ZM486.9,411.55l19.254,3.513-7.134,37.049L477.762,448Zm1.454-6.893,3.671-22.2,20.086,1.524-4.641,24.191C502.973,407.308,496.324,406.115,488.359,404.657Zm4.225-25.716,2.493-14.846,20.363,2.717-2.632,13.72Zm3.047-18.359,3.74-22.733,20.847,3.579L515.994,363.3Zm-6.649,17.829-30.267-6.893,6.926-39.435,30.2,5.17ZM425.47,313.194l36.985-21.01,27.358,32.078Zm40.171-22.866,48.067-27.373,10.735,12.526-48.136,27.24Zm-4.71-5.5-12.675-14.846,40.518-36.121L509,257.521Zm29.3-76.948-28.813-3.645c.9-5.236,1.732-10.074,2.147-12.593l28.466,5.5Zm-.554,3.513-2.424,14.515-28.6-5.17c.554-3.181,1.385-8.086,2.216-13.057Zm-34.7,8.749-21.4-3.844,9.558-28.566,16.83,3.248Zm-30.96-13.719-30.2-29.228,23.618-19.419,19.6,9.61Zm-38.3-31.88L372.762,164l7.134-24.125,44.05-5.17a25.157,25.157,0,0,0,2.7,6.23Zm-16.969-45.2-5.818-35.856,25-3.712,5.887,36.652ZM348.382,204.9l-15.861,10.936-18.493-45.864L326.7,153.531C330.929,167.715,338.755,190.912,348.382,204.9Zm-49.868-20.745-10.528-33.47,36.708-4.308c.208.862.485,1.79.762,2.784Zm-5.818-45.93-11.844,1.392L260.7,108.662l32.068-4.772Zm-15.861,1.856-30.752,3.579,12.19-32.078ZM240.2,138.553,223.713,77.644,258.9,89.507Zm-8.727-4.109-28.6-1.259-7.619-41.158,24.172-2.187Zm-32.414-1.458-19.532-.862-9.212-37.844,21.194-1.922Zm-26.943-.4-26.319,3.844L143.3,121.321l25.28-3.248ZM145.24,155.52l-12.813,1.524-1.732-14.78c2.84-.4,7.2-1.06,12.051-1.79Zm-14.268,87.619,37.816-3.446-19.255,56.468-19.809-7.755Zm17.454,56.4-10.735,31.548-9-1.392,1.039-37.447Zm-11.913,34.928-8.658,25.451.693-26.71C131.18,333.608,134.435,334.138,136.513,334.469Zm3.463,1.193,15.03,8.086-15.93,53.685-12.121-5.567.554-19.552Zm15.653,31.946,36.847,16.172-11.5,32.94-35.115-16.172Zm43.357,19.751,41.487,27.24-35.739,13.057-17.108-7.887Zm4.641,52.823,32.76,15.111-8.519,15.244-29.09-6.031Zm10.251-8.285,32.483-11.864,12.051,20.215-14.2,5.633Zm75.217-.066,4.779,16.437-25.349,8.881-19.878-9.213Zm-3.809-26.113,13.921-5.1,11.013,41.821-12.952,4.507Zm15.93-45.665,21.748-5.9L343.811,403.4l-28.882,8.616Zm33.176,11.731,40.933-19.949-21.817,65.151ZM375.117,391l35.046,6.429-6.718,36.254-40.033-7.754ZM409.4,442.038l39.479,7.622-3.047,20.612L407.67,451.383Zm1.247-6.959,6.718-36.32,38.094,7.025L449.919,442.7Zm45.5,15.973,41.556,8.02-4.086,21.341L452.9,472.724Zm46.266,48.25,17.8,2.187L514.678,528.6l-17.523-2.121Zm.693-3.446,8.173-42.55,18.215,2.983-8.519,41.755Zm9.489-49.509,5.541-28.963c5.749,1.127,15.237,3.049,26.458,5.236l-6.58,27.837Zm6.926-35.856,6.857-35.79,43.981,5.9-5.818,38.839Zm5.472-80.2-29.644-5.1-16.761-19.618,48.136-27.24,7.134,8.351ZM540.72,290l30.544,7.092c-1.732,8.218-6.095,29.494-8.242,39.766l-30.752-5.3Zm-4.987-12.328-36.154-42.351,43.219,7.755Zm-41.279-50.437,7.272-43.346,51.6,7.158-9.212,45.135Zm27.7-47.654,4.225-28.963,33.938,6.1-5.61,27.373Zm2.493-41.291-13.922-2.519,4.433-23.993,14.06,1.458Zm-1.87,11.665c-1.177,8.086-3.255,22.468-4.225,29.1l-15.584-2.187,4.987-29.626ZM503.458,134.51l-26.6-4.772c0-.53.069-.994.069-1.524a25.626,25.626,0,0,0-2.216-10.273l25.072-14.448,6.857,14.117Zm-2.84,11.466-7.965,47.654-48.344-9.279,10.32-30.819a26.921,26.921,0,0,0,18.631-12.46Zm-50.63-3.844c-8.034,0-14.614-6.23-14.614-13.985,0-7.688,6.51-13.985,14.614-13.985,8.034,0,14.614,6.23,14.614,13.985S458.023,142.132,449.988,142.132Zm-8.034,10.6L438.145,164l-17.731-8.682,10.736-8.815A27.689,27.689,0,0,0,441.954,152.736Zm-18.216-29.825-26.181,3.049L391.6,89.242l27.981-4.175,12.328,24.125A25.532,25.532,0,0,0,423.738,122.911ZM356.9,87.254,355.032,73.2,408.5,63.526l7.619,14.912Zm-1.247,7.357,2.84,17.564-21.332,2.452-2.009-16.967Zm-19.947,38.64-39.271,4.573.069-34.464,35.046-5.236ZM297.684,96.069l12.605-43.213L325.8,58.489l-8.935,34.729Zm-4.017.6-31.514,4.706,22.094-57.927L306.826,51.6ZM260.144,86.193l-18.077-6.1,6.372-21.805,19.393,7.688ZM238.6,78.9l-16-5.435-7.757-28.632,30.2,12.063ZM217.479,82.88l-50.422,4.639-2.286-15.575,47.236-9.014Zm-49.8,31.747-25,3.181-3.463-20.679L162.9,94.942Zm-28.051,7.158,2.563,15.178-11.844,1.723-1.8-15.509Zm-11.567-2.055L125.57,98.388l9.974-.928,3.463,20.811Zm-2.493,49.907-.554,19.419c-5.887.53-17.662,1.524-22.441,1.922l.762-18.757ZM95.1,284.827l-.623,15.907c-4.156-.133-14.06-.464-18.216-.663l.762-16.5ZM78.4,276.675l18.216-28.168L95.442,277.8Zm15.93,27.572-.762,18.889c-6.026-1.127-12.259-2.32-18.216-3.446l.762-16.105Zm-1.039,22.468-3.047,23.661L70.992,345.6l3.879-22.336Zm-1.039,36.917,10.735,2.585L101.883,380.2l-11.151-5.1Zm.485-3.513,4.225-32.741,9,1.723-2.632,33.6ZM109.5,329.764l11.705,2.187-1.524,56.468-14.2-6.562Zm-12.259-5.9L98,304.446c4.779.265,17.592.994,23.9,1.326l-.623,22.6C116.428,327.444,107.354,325.721,97.242,323.865Zm.9-22.932.623-15.84,23.618,1.591-.416,15.509Zm.97-22.866,1.385-34.531,23.133-1.591-1.039,37.712Zm1.524-38.11.554-13.852,22.856.6-.346,11.665Zm.831-20.944.97-24.523,22.441-1.922-.693,27.041ZM66.283,176.6l33.453-3.91-.762,18.491-34.215-.331Zm32.553,18.027-.97,24.258-35.946-.862,2.493-23.661Zm-1.316,31.349-.623,15.31-11.774,18.16L60.673,229.817l.485-4.838ZM83.113,262.691l-8.865,13.653-18.285-1.259,4.225-40.23Zm-9.766,20.679-1.662,35.657c-8.034-1.524-15.237-2.85-19.947-3.778L55.2,282.11ZM49.729,216.363l-14.822-1.988,7.342-40.363,11.705,2.121Zm1.593,102.465,19.947,3.778L64.2,362.9l-16.692-7.688ZM70.438,349.05l19.393,4.838-2.493,19.618-19.6-9.014ZM89.07,387.359l39.756,18.359-1.8,6.031-55.2,12.593Zm43.15,19.883,19.532,9.014-8.588,28.1-21.54-1.723Zm26.25,12.129,16.83,7.755L162.971,476.37l-21.194-2.121ZM187.7,482.4l-1.8,9.014-49.037-1.326,3.809-12.394Zm-21.055-5.7,12.051-48.051L196.77,437l-8.381,41.887Zm31.444-8.682,52.223,10.8-1.87,14.316-55.062-1.524Zm33.522,3.314,8.1-14.448,18.146,8.351-6.441,10.207Zm22.51,6.694,7.134-11.2,23.272,10.737L281.476,494l-29.367-.8Zm75.772-1.657c8.034,0,14.614,6.23,14.614,13.985,0,7.688-6.51,13.984-14.614,13.984-8.034,0-14.614-6.23-14.614-13.984A14.4,14.4,0,0,1,329.89,476.37Zm7.342-10.737a26.846,26.846,0,0,0-7.342-.994h-1.108l-13.021-49.244,29.367-8.749,6.58,15.575Zm23.9-32.94,41,7.953-.623,3.447-49.8,31.283a27.88,27.88,0,0,0-3.6-3.91Zm39.479,16.172L392.363,493.6l-35.739-5.832a24.025,24.025,0,0,0-2.978-9.345Zm9.835,54.812-2.77,11.731L374.84,510.9l6.3-11.93Zm-7.549-26.71,4.086-21.938,38.3,18.955-1.524,10.405Zm85.122,32.211-39.617-6.5,3.948-26.511,40.518,7.622Zm18.839,58.258-16.9-3.181,6.58-34.332,17.454,2.121Zm24.172,4.573-16.969-3.181L524.79,516l15.861,3.38Zm10.32-56.137-15.791-3.314,11.22-55.077,14.822,2.452ZM587.4,547.154l-24.034.663-.623-15.178,19.462-20.546C583.385,520.113,586.225,539.134,587.4,547.154Zm-5.887-39.568L562.537,527.6l-2.84-66.41,13.852,2.254ZM593.081,432.3l-4.433,26.511-46.959-7.688,6.511-27.77C562.122,426.131,578.19,429.312,593.081,432.3Zm-22.233-55.209-43.842-5.832,5.333-27.7,42.457,7.29Zm14.476-36.453-18.7-3.181,3.809-18.491,18.354,3.513Zm18.354,3.181L588.926,341.3l3.532-18.16,13.991,2.717ZM609.5,305.97,607,322.34l-35.808-6.893,3.6-17.564Zm-36.847-15.84-30.544-7.092,7.9-38.706,30.683,5.5Zm18.7-45.466-39.964-7.158,6.649-32.741,39.479,7.622ZM611.643,21.109l-4.225,28.3-16.484-.265-1.524-26.71ZM590.727,56.236l15.584.265-8.38,55.872-12.605-.066Zm-5.679,59.584,12.4.066-5.195,34.6-10.389-1.856Zm-6.857,32.145-6.926-1.259-3.879-90.867,19.6.331Zm7.48-125.331,1.524,26.445-20.086-.331-1.039-24.92ZM567.593,157.972,606.657,165l-8.45,43.876-39.479-7.622Zm-3.74-12.593-35.531-6.363c1.385-7.688,3.74-20.811,4.571-25.384l29.782,3.049Zm-1.385-32.343-46.751-4.772,3.463-19.088,42.18-.4ZM530.885,25.881l27.843-1.657,1.108,26.246L526.383,50.2ZM525.76,53.717l34.215.265,1.316,31.349-41.418.4ZM482.61,14.746l40.864,10.406-4.433,23.992L478.108,37.612Zm35.877,37.911-9.7,52.757-31.1-64.289Zm-43.219.265,22.925,47.322-25.211,14.515a26.671,26.671,0,0,0-8.034-8.02Zm-7.2-27.638L453.174,102.7c-.9-.066-1.732-.133-2.632-.2l-9.419-72.905Zm-34.215,5.5,9.419,72.508a1.691,1.691,0,0,1-.554.133L407.6,35.027ZM382.113,12.029l24.726,48.25-24.38,4.441L365.49,16.469ZM361.888,17.4c3.532,9.942,14.06,40.032,16.9,47.919L354.547,69.69l-6.441-48.648ZM349.56,88.381l-28.813,4.308,8.45-32.874,17.385,6.3ZM346.1,62.135l-34.63-12.593,8.173-17.1,23.618,8.218ZM324.9,16.4l15.791,4.706,2.078,15.575-21.817-7.556ZM297.614,8.317l23.757,7.025-4.433,14.183-8.865,18.69L285.494,40ZM266.793,2.286l21.956,8.749-4.71,12.394-22.787-7.556Zm-7.9,20.281,22.579,7.489-12.4,32.609-19.6-7.821ZM226,11.7l29.436,9.743-9.419,32.078L213.6,40.661l-2.77-10.207A137.956,137.956,0,0,0,226,11.7Zm-41.28,7.158L202.034,8.98l2.978,17.1a91.358,91.358,0,0,1-10.251,9.014Zm9.419,25.318A80.051,80.051,0,0,0,204.8,36.22l6.3,23.33L164.287,68.5l-1.8-12.46C174.884,53.187,185.758,49.343,194.138,44.173ZM158.885,56.7l4.571,31.15-49.037,4.507-2.424-30.421C128.341,61.14,144.478,59.55,158.885,56.7Zm-22.3-32.012,2.147,28.035a414.259,414.259,0,0,1-45.92,2.452l-.9-35.657ZM108.255,62l2.493,30.62L82.421,95.207l1.454-32.94C91.909,62.333,100.082,62.267,108.255,62ZM73.14,17.265,84.5,18.59l.346,14.449L71.408,31.448C71.824,28.267,72.655,21.44,73.14,17.265ZM84.983,36.618l.485,18.491c-5.541-.066-11.082-.133-16.415-.331l2.009-19.883ZM11.359,10.04,69.538,16.8,67.806,30.984,9.281,23.959ZM8.727,27.471l14.891,1.789-4.156,22.4C13.575,51.133,8.8,50.6,5.333,50.2Zm22.787,62.3L.208,84.271,4.294,57.23c6.3.729,16.969,1.856,30.267,2.85Zm4.433-7.357,18.77-5.567L57,94.213,35.115,90.369Zm-.208,15.31,29.436,5.17-7.48,61.97-7.757-1.392ZM14.822,130.268l23.2-4.639,8.034,37.049-27.5-4.971Zm-3.74,120.493,12.328-80.13,15.237,2.717L24.1,253.08Zm16.692,2.983,6.58-35.923,15.1,2.055-3.879,37.049ZM45.851,367.409l36.57,16.835L57.694,437.4l-22.025-1.789ZM34.63,442.634l57.833,4.706-.97,16.371-60.673,4.573ZM91.217,467.29,89.9,488.83l-15.1-.4V468.549Zm-60.95,4.573,40.864-3.115v19.486l-43.15-1.127ZM52.084,551.2l-33.107-4.242,4.987-33.271,31.306,4.109ZM24.518,510.171l1.732-11.333,30.821.862-1.385,14.647Zm42.457,42.948-11.22-1.458,3.186-33.338,11.567,1.524Zm3.879-36.784L59.218,514.81l1.454-14.979,11.913.331ZM87.338,555.7l-13.021-1.657,3.532-33.536,11.982.663ZM78.2,517,80,500.3l48.067,1.326,1.385,18.16Zm12.813,39.17,2.563-34.8,36.154,1.988,2.909,38.176Zm38.232-66.278-31.929-.862,1.247-21.076,34.769,8.483Zm-13.229-21.408,3.879-18.955,21.194,1.723-6.649,21.739Zm19.462,33.338,50.283,1.392,2.147,12.394-51.045,4.175Zm1.593,21.408,51.392-4.176,3.117,17.961-53.054,5.5Zm3.948,51.232-1.939-24.854,53.677-5.567,3.74,21.341Zm55.894-49.841-3.671-21.275,64.967,1.789c-1.385,5.368-3.74,13.587-7,23.462Zm74.317,45-24.311-8.881c1.524-3.513,2.978-6.959,4.294-10.405l25.557,5.766Zm-17.454-25.915a376.511,376.511,0,0,0,11.982-38.375l15.237.4,14.96,24.39-15.514,19.552Zm51.6,11.6L284.316,550.6l14.406-18.16,13.3,5.236Zm7.965-20.944-12.259-4.838,14.06-17.7a25.159,25.159,0,0,0,5.749,2.717Zm7.619.663,7.2-18.955a14.531,14.531,0,0,0,1.732.066,27.879,27.879,0,0,0,8.519-1.326l8.727,16.967Zm9.35,28.963,3.117-26.975,15.376-1.922L359.672,556.3Zm29.921-33.338-11.359-22.137a25.2,25.2,0,0,0,7.48-13.653l21.055,3.447ZM381.7,572.472l-6.441-12.526,21.471-5.9L400.19,566.9Zm51.115-15.178-29.09,8.616-3.463-12.792,34.561-9.478ZM436,536.019l-64,17.5-9.7-18.889,10.8-20.413,64.828,8.947Zm1.247,41.291,5.125-34.531,18.008,2.386-4.225,26.909Zm39.825-11.135L460.1,570.881l4.017-25.384,16.553,2.187Z" transform="translate(232.586 5105.085)" fill="#fff" opacity="0.14"/>
  </g>
</svg>
