<svg id="Group_215" data-name="Group 215" xmlns="http://www.w3.org/2000/svg" width="50" height="50" viewBox="0 0 50 50">
  <path id="Path_378" data-name="Path 378" d="M32.383,7.757A24.775,24.775,0,0,1,45,11.19a25.252,25.252,0,0,1,6.315,38.142,25.472,25.472,0,0,1-14.107,8.424V39.786h4.9l1.109-7.062H35.8V28.1a4.02,4.02,0,0,1,.855-2.656,3.909,3.909,0,0,1,3.137-1.193h4.483V18.063q-.1-.031-1.831-.246a36.4,36.4,0,0,0-3.951-.246A9.869,9.869,0,0,0,31.4,20.1q-2.608,2.508-2.664,7.256v5.367h-5.65v7.062h5.65V57.757a24.86,24.86,0,0,1-15.289-8.424A25.224,25.224,0,0,1,19.763,11.19,24.783,24.783,0,0,1,32.383,7.757Z" transform="translate(-7.383 -7.757)" fill="#343739" fill-rule="evenodd"/>
</svg>
