<svg id="Group_223" data-name="Group 223" xmlns="http://www.w3.org/2000/svg" width="48.359" height="48.359" viewBox="0 0 48.359 48.359">
  <path id="Path_378" data-name="Path 378" d="M31.562,7.757a23.962,23.962,0,0,1,12.205,3.321,24.423,24.423,0,0,1,6.108,36.89,24.636,24.636,0,0,1-13.644,8.148V38.735h4.742l1.072-6.83h-7.18V27.431a3.888,3.888,0,0,1,.827-2.568,3.781,3.781,0,0,1,3.034-1.154h4.336V17.725q-.093-.03-1.771-.237a35.2,35.2,0,0,0-3.821-.238A9.545,9.545,0,0,0,30.612,19.7q-2.522,2.425-2.577,7.018V31.9H22.571v6.83h5.464V56.116a24.044,24.044,0,0,1-14.787-8.148,24.4,24.4,0,0,1,6.108-36.89A23.97,23.97,0,0,1,31.562,7.757Z" transform="translate(-7.383 -7.757)" fill="#ffca10" fill-rule="evenodd"/>
</svg>
