<svg id="Group_247" data-name="Group 247" xmlns="http://www.w3.org/2000/svg" xmlns:xlink="http://www.w3.org/1999/xlink" width="1920" height="520" viewBox="0 0 1920 520">
  <defs>
    <clipPath id="clip-path">
      <rect id="Rectangle_119" data-name="Rectangle 119" width="1920" height="520" transform="translate(0 5912)" fill="#343739"/>
    </clipPath>
  </defs>
  <rect id="Rectangle_26" data-name="Rectangle 26" width="1920" height="520" fill="#343739"/>
  <g id="Mask_Group_2" data-name="Mask Group 2" transform="translate(0 -5912)" clip-path="url(#clip-path)">
    <g id="Group_227" data-name="Group 227" transform="translate(-304.853 -229.788)" opacity="0.13">
      <path id="Path_384" data-name="Path 384" d="M162.772,71.048C128.057,125.267,35.432,279.265,35.432,379.8c0,116.873,101.209,169.435,127.34,169.435s127.34-52.563,127.34-169.435c-.075-100.607-92.625-254.529-127.34-308.749Zm0,509.511c-38.255,0-158.742-60.394-158.742-200.837,0-132.762,139.841-337.59,145.79-346.175L162.772,14.72l12.952,18.826c5.949,8.66,145.79,213.413,145.79,346.175-.075,140.443-120.487,200.837-158.742,200.837Z" transform="translate(461.081 6156.523)"/>
      <path id="Path_385" data-name="Path 385" d="M189.09,56.177C149.254,117.852,31.4,311.158,31.4,436.616,31.4,588.505,162.281,645.36,189.09,645.36c26.733,0,157.688-56.855,157.688-208.744C346.7,311.083,228.851,117.852,189.09,56.177Zm0,620.51C143.455,676.687,0,604.47,0,436.616c0-159.947,168.908-407.4,176.137-417.79L189.09,0l12.952,18.826c7.229,10.467,176.137,257.843,176.137,417.79C378.1,604.47,234.649,676.687,189.09,676.687Z" transform="translate(434.763 6060.394)"/>
      <path id="Path_386" data-name="Path 386" d="M138.217,85.738C108.773,132.2,39.192,250.2,39.192,327.541c0,96.164,84.341,132.762,99.025,132.762s99.026-36.6,99.026-132.762c-.075-77.488-69.581-195.34-99.026-241.8Zm0,405.967c-31.4,0-130.427-49.4-130.427-164.164,0-107.46,112.656-272.452,117.475-279.455L138.217,29.26,151.17,48.086c4.82,7,117.475,172,117.475,279.455-.075,114.84-99.025,164.164-130.428,164.164Z" transform="translate(485.635 6251.476)"/>
      <path id="Path_387" data-name="Path 387" d="M110.57,101.294c-22.742,36.523-67.4,115.065-67.4,167.1,0,66.268,57.382,91.8,67.4,91.872,10.015-.075,67.4-25.6,67.4-91.872,0-52.111-44.731-130.578-67.4-167.1Zm0,290.3c-29.519,0-98.8-41.945-98.8-123.273,0-79.145,82.383-199.783,85.847-204.9L110.57,44.59l12.952,18.826c3.539,5.121,85.847,125.683,85.847,204.9,0,81.4-69.28,123.273-98.8,123.273Z" transform="translate(511.627 6351.588)"/>
      <path id="Path_388" data-name="Path 388" d="M83.318,52.12c-22.742,36.523-67.4,114.99-67.4,167.1,0,66.268,57.382,91.8,67.4,91.871,10.016-.075,67.4-25.6,67.4-91.871,0-52.111-44.656-130.578-67.4-167.1Z" transform="translate(538.728 6400.761)"/>
    </g>
    <g id="Group_228" data-name="Group 228" transform="translate(973.147 -229.788)" opacity="0.13">
      <path id="Path_384-2" data-name="Path 384" d="M162.772,71.048C128.057,125.267,35.432,279.265,35.432,379.8c0,116.873,101.209,169.435,127.34,169.435s127.34-52.563,127.34-169.435c-.075-100.607-92.625-254.529-127.34-308.749Zm0,509.511c-38.255,0-158.742-60.394-158.742-200.837,0-132.762,139.841-337.59,145.79-346.175L162.772,14.72l12.952,18.826c5.949,8.66,145.79,213.413,145.79,346.175-.075,140.443-120.487,200.837-158.742,200.837Z" transform="translate(461.081 6156.523)"/>
      <path id="Path_385-2" data-name="Path 385" d="M189.09,56.177C149.254,117.852,31.4,311.158,31.4,436.616,31.4,588.505,162.281,645.36,189.09,645.36c26.733,0,157.688-56.855,157.688-208.744C346.7,311.083,228.851,117.852,189.09,56.177Zm0,620.51C143.455,676.687,0,604.47,0,436.616c0-159.947,168.908-407.4,176.137-417.79L189.09,0l12.952,18.826c7.229,10.467,176.137,257.843,176.137,417.79C378.1,604.47,234.649,676.687,189.09,676.687Z" transform="translate(434.763 6060.394)"/>
      <path id="Path_386-2" data-name="Path 386" d="M138.217,85.738C108.773,132.2,39.192,250.2,39.192,327.541c0,96.164,84.341,132.762,99.025,132.762s99.026-36.6,99.026-132.762c-.075-77.488-69.581-195.34-99.026-241.8Zm0,405.967c-31.4,0-130.427-49.4-130.427-164.164,0-107.46,112.656-272.452,117.475-279.455L138.217,29.26,151.17,48.086c4.82,7,117.475,172,117.475,279.455-.075,114.84-99.025,164.164-130.428,164.164Z" transform="translate(485.635 6251.476)"/>
      <path id="Path_387-2" data-name="Path 387" d="M110.57,101.294c-22.742,36.523-67.4,115.065-67.4,167.1,0,66.268,57.382,91.8,67.4,91.872,10.015-.075,67.4-25.6,67.4-91.872,0-52.111-44.731-130.578-67.4-167.1Zm0,290.3c-29.519,0-98.8-41.945-98.8-123.273,0-79.145,82.383-199.783,85.847-204.9L110.57,44.59l12.952,18.826c3.539,5.121,85.847,125.683,85.847,204.9,0,81.4-69.28,123.273-98.8,123.273Z" transform="translate(511.627 6351.588)"/>
      <path id="Path_388-2" data-name="Path 388" d="M83.318,52.12c-22.742,36.523-67.4,114.99-67.4,167.1,0,66.268,57.382,91.8,67.4,91.871,10.016-.075,67.4-25.6,67.4-91.871,0-52.111-44.656-130.578-67.4-167.1Z" transform="translate(538.728 6400.761)"/>
    </g>
  </g>
</svg>
