<svg id="Group_222" data-name="Group 222" xmlns="http://www.w3.org/2000/svg" width="48.359" height="48.358" viewBox="0 0 48.359 48.358">
  <circle id="Ellipse_2" data-name="Ellipse 2" cx="5.078" cy="5.078" r="5.078" transform="translate(19.102 19.102)" fill="#ffca10"/>
  <path id="Path_133" data-name="Path 133" d="M30.179,6A24.179,24.179,0,1,0,54.359,30.179,24.179,24.179,0,0,0,30.179,6ZM45.118,36.325a9.149,9.149,0,0,1-2.437,6.223,9.317,9.317,0,0,1-6.29,2.412H23.968a9.315,9.315,0,0,1-6.29-2.412,9.148,9.148,0,0,1-2.437-6.223V24.034a9.149,9.149,0,0,1,2.437-6.223,9.316,9.316,0,0,1,6.29-2.411H36.391a9.314,9.314,0,0,1,6.29,2.411,9.149,9.149,0,0,1,2.437,6.223Z" transform="translate(-6 -6)" fill="#ffca10"/>
  <path id="Path_134" data-name="Path 134" d="M147.914,131.557c-3.026-.083-9.082-.083-12.108,0a6.348,6.348,0,0,0-4.482,1.634,6.426,6.426,0,0,0-1.651,4.434c-.079,2.955,0,11.824,0,11.824a6.457,6.457,0,0,0,1.651,4.434,6.346,6.346,0,0,0,4.482,1.634c3.026.083,9.082.083,12.108,0a6.348,6.348,0,0,0,4.482-1.634,6.426,6.426,0,0,0,1.651-4.434V137.624a6.426,6.426,0,0,0-1.651-4.434,6.347,6.347,0,0,0-4.482-1.634Zm-6.054,19.85a7.87,7.87,0,1,1,7.87-7.87A7.87,7.87,0,0,1,141.859,151.407Zm7.9-14.116a1.574,1.574,0,1,1,1.574-1.574,1.574,1.574,0,0,1-1.574,1.574Z" transform="translate(-117.68 -119.357)" fill="#ffca10"/>
</svg>
