<svg xmlns="http://www.w3.org/2000/svg" width="23.453" height="15.635" viewBox="0 0 23.453 15.635">
  <g id="Group_231" data-name="Group 231" transform="translate(0 -85.33)">
    <path id="Path_389" data-name="Path 389" d="M0,85.333H23.452v15.635H0Z" transform="translate(0 -0.003)" fill="#f0f0f0"/>
    <path id="Path_390" data-name="Path 390" d="M13.192,85.33H10.26v6.352H0v2.932H10.26v6.352h2.932V94.613h10.26V91.682H13.192Z" fill="#d80027"/>
    <path id="Path_391" data-name="Path 391" d="M315.414,315.358l5.415,3.008v-3.008Zm-3.762,0,9.177,5.1v-1.442l-6.582-3.657Zm6.733,5.1-6.733-3.741v3.741Z" transform="translate(-297.377 -219.491)" fill="#0052b4"/>
    <path id="Path_392" data-name="Path 392" d="M311.652,315.358l9.177,5.1v-1.442l-6.582-3.657Z" transform="translate(-297.377 -219.491)" fill="#f0f0f0"/>
    <path id="Path_393" data-name="Path 393" d="M311.652,315.358l9.177,5.1v-1.442l-6.582-3.657Z" transform="translate(-297.377 -219.491)" fill="#d80027"/>
    <path id="Path_394" data-name="Path 394" d="M4.138,315.356,0,317.655v-2.3ZM9.177,316v4.45H1.168Z" transform="translate(0 -219.49)" fill="#0052b4"/>
    <path id="Path_395" data-name="Path 395" d="M6.582,315.358,0,319.015v1.442l9.177-5.1Z" transform="translate(0 -219.491)" fill="#d80027"/>
    <path id="Path_396" data-name="Path 396" d="M5.415,90.428,0,87.42v3.008Zm3.762,0L0,85.33v1.442l6.582,3.657Zm-6.733-5.1,6.733,3.741V85.33Z" fill="#0052b4"/>
    <path id="Path_397" data-name="Path 397" d="M9.177,90.428,0,85.33v1.442l6.582,3.657Z" fill="#f0f0f0"/>
    <path id="Path_398" data-name="Path 398" d="M9.177,90.428,0,85.33v1.442l6.582,3.657Z" fill="#d80027"/>
    <path id="Path_399" data-name="Path 399" d="M316.691,90.429l4.138-2.3v2.3Zm-5.039-.648v-4.45h8.009Z" transform="translate(-297.377 -0.001)" fill="#0052b4"/>
    <path id="Path_400" data-name="Path 400" d="M314.247,90.428l6.582-3.657V85.33l-9.177,5.1Z" transform="translate(-297.377)" fill="#d80027"/>
  </g>
</svg>
