<svg id="Group_216" data-name="Group 216" xmlns="http://www.w3.org/2000/svg" width="50" height="50" viewBox="0 0 50 50">
  <g id="Layer_2" data-name="Layer 2">
    <path id="_10.Linkedin" data-name="10.Linkedin" d="M25,0A25,25,0,1,0,50,25,25,25,0,0,0,25,0ZM17.73,38.158H12.276V20.589H17.73ZM15,18.191A3.174,3.174,0,1,1,18.161,15,3.174,3.174,0,0,1,15,18.191ZM38.158,38.158H32.707V29.605c0-2.039-.039-4.655-2.836-4.655s-3.289,2.217-3.289,4.507v8.7H21.151V20.589h5.234v2.395h.076a5.728,5.728,0,0,1,5.161-2.839c5.52,0,6.536,3.638,6.536,8.362Z" fill="#343739"/>
  </g>
</svg>
