<svg id="Group_224" data-name="Group 224" xmlns="http://www.w3.org/2000/svg" width="48.359" height="48.358" viewBox="0 0 48.359 48.358">
  <g id="Layer_2" data-name="Layer 2">
    <path id="_10.Linkedin" data-name="10.Linkedin" d="M24.179,0A24.179,24.179,0,1,0,48.358,24.179,24.179,24.179,0,0,0,24.179,0ZM17.148,36.905H11.873V19.913h5.275ZM14.508,17.594a3.07,3.07,0,1,1,3.057-3.086A3.07,3.07,0,0,1,14.508,17.594Zm22.4,19.312H31.633V28.633c0-1.973-.038-4.5-2.742-4.5S25.71,26.276,25.71,28.49v8.415H20.457V19.913h5.062v2.316h.073a5.54,5.54,0,0,1,4.992-2.746c5.339,0,6.322,3.519,6.322,8.087Z" fill="#ffca10"/>
  </g>
</svg>
