<svg xmlns="http://www.w3.org/2000/svg" width="18.607" height="21.17" viewBox="0 0 18.607 21.17">
  <g id="Group_220" data-name="Group 220" transform="translate(-31)">
    <path id="Path_382" data-name="Path 382" d="M97.823,0a6.819,6.819,0,0,0-5.546,10.792L97.3,18.631a.62.62,0,0,0,1.044,0l5.045-7.866A6.822,6.822,0,0,0,97.823,0Zm0,9.924a3.1,3.1,0,1,1,3.1-3.1A3.1,3.1,0,0,1,97.823,9.924Z" transform="translate(-57.519)" fill="#343739"/>
    <path id="Path_383" data-name="Path 383" d="M45.152,344.7l-3.123,4.883a2.051,2.051,0,0,1-3.452,0L35.449,344.7c-2.752.636-4.449,1.8-4.449,3.2,0,2.417,4.793,3.721,9.3,3.721s9.3-1.3,9.3-3.721C49.607,346.5,47.908,345.331,45.152,344.7Z" transform="translate(0 -330.442)" fill="#343739"/>
  </g>
</svg>
