<svg id="Group_214" data-name="Group 214" xmlns="http://www.w3.org/2000/svg" width="171.568" height="66.945" viewBox="0 0 171.568 66.945">
  <path id="Path_372" data-name="Path 372" d="M19.594,20.243C16.19,25.559,7.109,40.658,7.109,50.515c0,11.459,9.923,16.613,12.485,16.613s12.485-5.154,12.485-16.613C32.072,40.65,23,25.559,19.594,20.243Zm0,49.956C15.843,70.2,4.03,64.277,4.03,50.507c0-13.017,13.711-33.1,14.294-33.941l1.27-1.846,1.27,1.846c.583.849,14.294,20.925,14.294,33.941C35.151,64.277,23.345,70.2,19.594,70.2Z" transform="translate(-1.054 -3.852)" fill="#fc0"/>
  <path id="Path_373" data-name="Path 373" d="M18.54,5.508c-3.906,6.047-15.461,25-15.461,37.3,0,14.892,12.832,20.467,15.461,20.467S34,57.7,34,42.809C33.993,30.5,22.438,11.555,18.54,5.508Zm0,60.839C14.065,66.347,0,59.266,0,42.809,0,27.127,16.561,2.865,17.27,1.846L18.54,0l1.27,1.846c.709,1.026,17.27,25.281,17.27,40.963-.007,16.458-14.073,23.538-18.54,23.538Z" fill="#fc0"/>
  <path id="Path_374" data-name="Path 374" d="M20.578,34.8c-2.887,4.556-9.709,16.125-9.709,23.708,0,9.429,8.269,13.017,9.709,13.017s9.709-3.588,9.709-13.017c-.007-7.6-6.822-19.153-9.709-23.708Zm0,39.8C17.5,74.6,7.79,69.758,7.79,58.506c0-10.536,11.046-26.713,11.518-27.4l1.27-1.846,1.27,1.846c.473.687,11.518,16.864,11.518,27.4-.007,11.26-9.709,16.1-12.788,16.1Z" transform="translate(-2.038 -7.656)" fill="#fff"/>
  <path id="Path_375" data-name="Path 375" d="M21.457,50.15c-2.23,3.581-6.608,11.282-6.608,16.384,0,6.5,5.626,9,6.608,9.008s6.608-2.51,6.608-9.008c0-5.109-4.386-12.8-6.608-16.384Zm0,28.463c-2.894,0-9.687-4.113-9.687-12.087,0-7.76,8.077-19.588,8.417-20.09l1.27-1.846,1.27,1.846c.347.5,8.417,12.323,8.417,20.09,0,7.981-6.793,12.087-9.687,12.087Z" transform="translate(-3.08 -11.667)" fill="#fc0"/>
  <path id="Path_376" data-name="Path 376" d="M22.528,52.12C20.3,55.7,15.92,63.394,15.92,68.5c0,6.5,5.626,9,6.608,9.008S29.136,75,29.136,68.5c0-5.109-4.378-12.8-6.608-16.384Z" transform="translate(-4.166 -13.638)"/>
  <path id="Path_377" data-name="Path 377" d="M69.7,40.372h2.621a5.828,5.828,0,0,0,3.182-.657,2.451,2.451,0,0,0,.96-2.178,2.54,2.54,0,0,0-.879-2.178,5.052,5.052,0,0,0-2.968-.657H69.712v5.67ZM187.491,57.361h.561a2.058,2.058,0,0,1-.539,1.351,1.716,1.716,0,0,1-1.277.473,2.507,2.507,0,0,1-.871-.148,2.029,2.029,0,0,1-.694-.458,2.218,2.218,0,0,1-.509-.768,2.492,2.492,0,0,1-.177-.938,2.542,2.542,0,0,1,.17-.93,2.156,2.156,0,0,1,.509-.76,2.051,2.051,0,0,1,.694-.465,2.132,2.132,0,0,1,.82-.155,1.919,1.919,0,0,1,.657.111,2.313,2.313,0,0,1,.613.34l.133-.391h.473v1.794h-.5a1.688,1.688,0,0,0-.4-.975,1.181,1.181,0,0,0-1.787.133,2.241,2.241,0,0,0-.34,1.329,1.991,1.991,0,0,0,.34,1.248,1.142,1.142,0,0,0,.96.443,1.018,1.018,0,0,0,.775-.31,1.835,1.835,0,0,0,.391-.923Zm-8.543-2.68H181.3v.495h-.3a.607.607,0,0,0-.362.066.514.514,0,0,0-.074.332v2.976h.812a2.054,2.054,0,0,0,.65-.074.513.513,0,0,0,.31-.251,1.428,1.428,0,0,0,.14-.413,3.291,3.291,0,0,0,.044-.583v-.081h.5v1.89h-4.068v-.495h.251a.607.607,0,0,0,.362-.066.526.526,0,0,0,.066-.332V55.567a.526.526,0,0,0-.066-.332.607.607,0,0,0-.362-.066h-.251v-.487Zm-4.962,0h2.348v.495h-.3a.607.607,0,0,0-.362.066.514.514,0,0,0-.074.332v2.976h.812a2.054,2.054,0,0,0,.65-.074.513.513,0,0,0,.31-.251,1.428,1.428,0,0,0,.14-.413,3.293,3.293,0,0,0,.044-.583v-.081h.5v1.89h-4.068v-.495h.251a.623.623,0,0,0,.362-.066.526.526,0,0,0,.066-.332V55.567a.526.526,0,0,0-.066-.332.607.607,0,0,0-.362-.066h-.251v-.487Zm-5.663,4.408V57.833h.473a1.105,1.105,0,0,0,.362.642,1.03,1.03,0,0,0,.679.222.67.67,0,0,0,.4-.111.336.336,0,0,0,.148-.3.278.278,0,0,0-.118-.236,1.3,1.3,0,0,0-.428-.17l-.48-.118a1.629,1.629,0,0,1-.753-.354.785.785,0,0,1-.244-.591.872.872,0,0,1,.325-.7,1.327,1.327,0,0,1,.864-.266,1.675,1.675,0,0,1,.48.074,1.608,1.608,0,0,1,.443.236l.14-.244h.377v1.137h-.443a1.069,1.069,0,0,0-.347-.554.942.942,0,0,0-.6-.2.571.571,0,0,0-.362.1.316.316,0,0,0-.133.266.279.279,0,0,0,.089.207.628.628,0,0,0,.273.126l.591.14a1.832,1.832,0,0,1,.834.377.8.8,0,0,1,.258.628.885.885,0,0,1-.332.731,1.423,1.423,0,0,1-.916.266,1.744,1.744,0,0,1-.532-.081,1.882,1.882,0,0,1-.509-.266l-.118.273h-.421Zm-2.658-1V56.43h-.509V56.01a.969.969,0,0,0,.642-.354,1.67,1.67,0,0,0,.244-.886h.421V55.98h.849v.45h-.856v1.757a.581.581,0,0,0,.052.3.21.21,0,0,0,.185.081.23.23,0,0,0,.229-.155,1.939,1.939,0,0,0,.066-.635v-.17h.421c0,.037.007.074.007.111v.17a1.708,1.708,0,0,1-.221.982.831.831,0,0,1-.716.3.716.716,0,0,1-.613-.258,1.408,1.408,0,0,1-.2-.827Zm-1.779-.317h.5a1.553,1.553,0,0,1-.377,1.041,1.351,1.351,0,0,1-1,.347,1.513,1.513,0,0,1-1.152-.443,1.675,1.675,0,0,1-.428-1.2,1.6,1.6,0,0,1,.473-1.2,1.677,1.677,0,0,1,1.226-.465,1.459,1.459,0,0,1,.923.273.807.807,0,0,1,.362.679.567.567,0,0,1-.14.406.49.49,0,0,1-.384.148.469.469,0,0,1-.34-.126.451.451,0,0,1-.126-.332.387.387,0,0,1,.1-.266.412.412,0,0,1,.273-.126.978.978,0,0,0-.642-.236.714.714,0,0,0-.62.325,1.577,1.577,0,0,0-.221.9,1.294,1.294,0,0,0,.207.8.719.719,0,0,0,.613.266.673.673,0,0,0,.517-.2.973.973,0,0,0,.229-.6Zm-6.616.236V56.8c0-.17-.022-.273-.074-.317a.494.494,0,0,0-.3-.066h-.148V55.98h1.307v2.038a.817.817,0,0,0,.111.487.442.442,0,0,0,.369.148.7.7,0,0,0,.583-.281,1.2,1.2,0,0,0,.214-.768v-.8c0-.17-.022-.273-.074-.317a.479.479,0,0,0-.3-.066h-.3v-.436h1.462v2.245c0,.162.022.273.074.317a.486.486,0,0,0,.3.074h.17v.436h-1.329V58.52a1.962,1.962,0,0,1-.524.48,1.063,1.063,0,0,1-.554.162.985.985,0,0,1-.76-.258,1.441,1.441,0,0,1-.229-.893Zm-4.068-.487a1.475,1.475,0,0,0,.185.827.628.628,0,0,0,.561.273.611.611,0,0,0,.539-.3,1.724,1.724,0,0,0,0-1.61.679.679,0,0,0-1.1-.015,1.416,1.416,0,0,0-.185.82Zm1.484-2.016a.473.473,0,0,0-.074-.325.461.461,0,0,0-.3-.074h-.273v-.436h1.432v3.544a.473.473,0,0,0,.074.325.468.468,0,0,0,.3.066h.185v.436H154.68v-.539a1.09,1.09,0,0,1-.413.473,1.208,1.208,0,0,1-.635.155,1.19,1.19,0,0,1-.975-.428,2.286,2.286,0,0,1,0-2.422,1.176,1.176,0,0,1,.975-.436,1.226,1.226,0,0,1,.635.155,1.13,1.13,0,0,1,.421.48v-.975Zm-5.8,2.008a1.547,1.547,0,0,0,.214.893.838.838,0,0,0,1.277,0,1.956,1.956,0,0,0,0-1.779.838.838,0,0,0-1.277,0,1.438,1.438,0,0,0-.214.886Zm-.886,0a1.579,1.579,0,0,1,.473-1.2A1.982,1.982,0,0,1,151,56.32a1.759,1.759,0,0,1,0,2.4,1.995,1.995,0,0,1-2.525,0,1.6,1.6,0,0,1-.473-1.2Zm-2.222.709a.473.473,0,0,0,.074.325.468.468,0,0,0,.3.066h.325v.436H144.4v-.436h.214a.453.453,0,0,0,.3-.066c.052-.044.074-.155.074-.325V56.8c0-.17-.022-.273-.074-.317a.468.468,0,0,0-.3-.066H144.4V55.98h1.373v.465a1.144,1.144,0,0,1,.354-.406.818.818,0,0,1,.458-.14.854.854,0,0,1,.569.192.655.655,0,0,1,.221.509.565.565,0,0,1-.148.4.5.5,0,0,1-.384.155.469.469,0,0,1-.325-.111.374.374,0,0,1-.126-.288.392.392,0,0,1,.1-.273.638.638,0,0,1,.3-.17c-.052-.022-.1-.037-.14-.052a.387.387,0,0,0-.126-.015.636.636,0,0,0-.539.325,1.445,1.445,0,0,0-.214.834v.82Zm-4.674-1.639h.436a1.572,1.572,0,0,0,.842-.162.594.594,0,0,0,.244-.539.612.612,0,0,0-.236-.546,1.805,1.805,0,0,0-.908-.155H141.1v1.4Zm0,1.565c0,.177.022.288.074.332a.607.607,0,0,0,.362.066h.3v.495H139.5v-.495h.251a.607.607,0,0,0,.362-.066.526.526,0,0,0,.066-.332V55.574a.526.526,0,0,0-.066-.332.607.607,0,0,0-.362-.066H139.5v-.495h2.3a2.435,2.435,0,0,1,1.336.3,1,1,0,0,1,.45.893,1.264,1.264,0,0,1-.126.569,1.153,1.153,0,0,1-.369.413,1.291,1.291,0,0,1-.495.17,5.575,5.575,0,0,1-.886.052h-.605v1.071Zm-5.73-2.643c0-.162-.022-.273-.074-.317a.471.471,0,0,0-.3-.074h-.192v-.436h1.366v3.544c0,.162.022.273.074.317a.486.486,0,0,0,.3.074h.192v.436H134.8v-.436H135a.429.429,0,0,0,.3-.074c.052-.044.074-.155.074-.317V55.507Zm-3.286,3.544v-.436h.244a.468.468,0,0,0,.3-.066c.052-.044.074-.155.074-.325V56.8c0-.17-.022-.273-.074-.317a.468.468,0,0,0-.3-.066h-.244V55.98h1.41v2.245c0,.162.022.273.074.317a.471.471,0,0,0,.3.074h.2v.436h-1.986Zm.473-3.943a.479.479,0,0,1,.48-.48.462.462,0,0,1,.347.14.446.446,0,0,1,.14.34.479.479,0,0,1-.487.487.446.446,0,0,1-.34-.14.462.462,0,0,1-.14-.347Zm-5.095,1.75a2.084,2.084,0,0,0,.369,1.322,1.319,1.319,0,0,0,2.023,0,2.581,2.581,0,0,0,0-2.636,1.214,1.214,0,0,0-1.012-.473,1.2,1.2,0,0,0-1.012.473,2.107,2.107,0,0,0-.369,1.314Zm-1.026,0a2.191,2.191,0,0,1,.664-1.669,2.708,2.708,0,0,1,3.485,0,2.447,2.447,0,0,1-.007,3.345,2.708,2.708,0,0,1-3.485,0,2.23,2.23,0,0,1-.657-1.676Zm-5.656.665a1.475,1.475,0,0,0,.185.827.628.628,0,0,0,.561.273.611.611,0,0,0,.539-.3,1.724,1.724,0,0,0,0-1.61.679.679,0,0,0-1.1-.015,1.416,1.416,0,0,0-.185.82Zm1.484-2.016a.473.473,0,0,0-.074-.325.46.46,0,0,0-.3-.074h-.273v-.436h1.432v3.544a.473.473,0,0,0,.074.325.468.468,0,0,0,.3.066h.185v.436h-1.351v-.539a1.09,1.09,0,0,1-.413.473,1.208,1.208,0,0,1-.635.155,1.19,1.19,0,0,1-.975-.428,2.286,2.286,0,0,1,0-2.422,1.176,1.176,0,0,1,.975-.436,1.226,1.226,0,0,1,.635.155,1.13,1.13,0,0,1,.421.48v-.975Zm-4.105,1.61a1.127,1.127,0,0,0-.177-.62.491.491,0,0,0-.428-.2.576.576,0,0,0-.465.207,1.173,1.173,0,0,0-.236.613h1.307Zm.3.834h.546a1.341,1.341,0,0,1-.45.893,1.485,1.485,0,0,1-.982.325,1.586,1.586,0,0,1-1.189-.45,1.845,1.845,0,0,1,.007-2.407,1.585,1.585,0,0,1,1.181-.458,1.32,1.32,0,0,1,1.078.443,1.924,1.924,0,0,1,.369,1.277h-2.193a1.463,1.463,0,0,0,.222.8.659.659,0,0,0,.569.273.856.856,0,0,0,.569-.162.907.907,0,0,0,.273-.532Zm-7.258,1.1v-.436h.214a.453.453,0,0,0,.3-.066c.052-.044.074-.155.074-.325V56.8c0-.17-.022-.273-.074-.317a.468.468,0,0,0-.3-.066h-.214V55.98h1.373v.539a2.079,2.079,0,0,1,.524-.48,1.078,1.078,0,0,1,.546-.155.985.985,0,0,1,.76.258,1.311,1.311,0,0,1,.229.871v1.211a.473.473,0,0,0,.074.325.468.468,0,0,0,.3.066h.192v.436h-1.853v-.436h.133a.468.468,0,0,0,.3-.066c.052-.044.074-.155.074-.325V57.014a.833.833,0,0,0-.111-.487.442.442,0,0,0-.369-.148.71.71,0,0,0-.583.281,1.248,1.248,0,0,0-.214.768v.8a.473.473,0,0,0,.074.325.468.468,0,0,0,.3.066h.133v.436h-1.868Zm-3.33-3.071h2.067v2.245a.473.473,0,0,0,.074.325.468.468,0,0,0,.3.066h.258v.436h-1.92v-.436h.133a.468.468,0,0,0,.3-.066c.052-.044.074-.155.074-.325v-1.4c0-.17-.022-.281-.074-.325a.468.468,0,0,0-.3-.066h-.908v1.787a.473.473,0,0,0,.074.325.468.468,0,0,0,.3.066h.133v.436h-1.92v-.436h.258a.454.454,0,0,0,.3-.066c.052-.044.074-.155.074-.325V56.438h-.635V55.98h.635v-.1a1.263,1.263,0,0,1,.354-1.012,1.778,1.778,0,0,1,1.174-.3,1.951,1.951,0,0,1,.938.192.58.58,0,0,1,.34.532.429.429,0,0,1-.118.325.479.479,0,0,1-.332.118.547.547,0,0,1-.34-.1.329.329,0,0,1-.126-.266.4.4,0,0,1,.03-.162.5.5,0,0,1,.1-.133.8.8,0,0,0-.222-.081,1.222,1.222,0,0,0-.236-.022.76.76,0,0,0-.591.2.961.961,0,0,0-.185.65v.17Zm-3.035,1.137a1.127,1.127,0,0,0-.177-.62.491.491,0,0,0-.428-.2.576.576,0,0,0-.465.207,1.174,1.174,0,0,0-.236.613h1.307Zm.3.834h.546a1.341,1.341,0,0,1-.45.893,1.485,1.485,0,0,1-.982.325,1.586,1.586,0,0,1-1.189-.45,1.845,1.845,0,0,1,.007-2.407,1.585,1.585,0,0,1,1.181-.458,1.32,1.32,0,0,1,1.078.443,1.924,1.924,0,0,1,.369,1.277h-2.193a1.463,1.463,0,0,0,.222.8.659.659,0,0,0,.569.273.856.856,0,0,0,.569-.162.867.867,0,0,0,.273-.532Zm-6.424-1.462h.768a1.168,1.168,0,0,0,.679-.155.7.7,0,0,0,.007-1,1.228,1.228,0,0,0-.709-.155h-.746v1.314Zm0,1.661c0,.177.022.288.074.332a.592.592,0,0,0,.362.074h.3v.495H97.1v-.495h.251a.607.607,0,0,0,.362-.066.538.538,0,0,0,.066-.34V55.581a.526.526,0,0,0-.066-.332.607.607,0,0,0-.362-.066H97.1v-.495h2.614a2.3,2.3,0,0,1,1.218.258.874.874,0,0,1,.4.79.961.961,0,0,1-.317.753,1.738,1.738,0,0,1-.938.354,1.113,1.113,0,0,1,.657.266,1.083,1.083,0,0,1,.222.679l.03.391a.658.658,0,0,0,.059.3.155.155,0,0,0,.133.074c.126,0,.192-.236.2-.716v-.015h.413a.359.359,0,0,1,.007.089v.133a1.41,1.41,0,0,1-.222.879.828.828,0,0,1-.687.281.841.841,0,0,1-.605-.214.812.812,0,0,1-.229-.591l-.015-.532a.952.952,0,0,0-.229-.694,1.211,1.211,0,0,0-.79-.185h-.31v1.167ZM93.42,57.117a1.127,1.127,0,0,0-.177-.62.491.491,0,0,0-.428-.2.576.576,0,0,0-.465.207,1.174,1.174,0,0,0-.236.613H93.42Zm.3.834h.546a1.341,1.341,0,0,1-.45.893,1.485,1.485,0,0,1-.982.325,1.586,1.586,0,0,1-1.189-.45,1.845,1.845,0,0,1,.007-2.407,1.585,1.585,0,0,1,1.181-.458,1.32,1.32,0,0,1,1.078.443,1.924,1.924,0,0,1,.369,1.277H92.083a1.463,1.463,0,0,0,.222.8.659.659,0,0,0,.569.273.856.856,0,0,0,.569-.162.867.867,0,0,0,.273-.532Zm-4.851.273a.473.473,0,0,0,.074.325.468.468,0,0,0,.3.066h.325v.436H87.483v-.436H87.7a.453.453,0,0,0,.3-.066c.052-.044.074-.155.074-.325V56.8c0-.17-.022-.273-.074-.317a.468.468,0,0,0-.3-.066h-.214V55.98h1.373v.465a1.144,1.144,0,0,1,.354-.406.818.818,0,0,1,.458-.14.854.854,0,0,1,.569.192.655.655,0,0,1,.222.509.565.565,0,0,1-.148.4.5.5,0,0,1-.384.155.469.469,0,0,1-.325-.111.374.374,0,0,1-.126-.288.392.392,0,0,1,.1-.273.638.638,0,0,1,.3-.17c-.052-.022-.1-.037-.14-.052a.387.387,0,0,0-.126-.015.636.636,0,0,0-.539.325,1.445,1.445,0,0,0-.214.834v.82Zm-4.733-.709a1.547,1.547,0,0,0,.214.893.725.725,0,0,0,.635.3.739.739,0,0,0,.642-.3,1.955,1.955,0,0,0,0-1.779.838.838,0,0,0-1.277,0,1.489,1.489,0,0,0-.214.886Zm-.886,0a1.579,1.579,0,0,1,.473-1.2,1.982,1.982,0,0,1,2.525.007,1.759,1.759,0,0,1,0,2.4,1.995,1.995,0,0,1-2.525,0,1.6,1.6,0,0,1-.473-1.2ZM79.1,55.507c0-.162-.022-.273-.074-.317a.486.486,0,0,0-.3-.074h-.17v-.436h1.329v1.838a1.962,1.962,0,0,1,.524-.48,1.063,1.063,0,0,1,.554-.162.985.985,0,0,1,.76.258,1.3,1.3,0,0,1,.229.871v1.211c0,.162.022.273.074.317a.486.486,0,0,0,.3.074h.185v.436H80.654v-.436h.133a.441.441,0,0,0,.3-.074c.052-.044.074-.155.074-.317V57.006a.817.817,0,0,0-.111-.487.442.442,0,0,0-.369-.148.7.7,0,0,0-.591.288,1.3,1.3,0,0,0-.214.79v.768c0,.162.022.273.074.317a.486.486,0,0,0,.3.074h.133v.436H78.549v-.436h.17a.441.441,0,0,0,.3-.074c.052-.044.074-.155.074-.317v-2.71Zm-4.172,3.581V57.833H75.4a1.106,1.106,0,0,0,.362.642,1.023,1.023,0,0,0,.672.222.67.67,0,0,0,.4-.111.336.336,0,0,0,.148-.3.278.278,0,0,0-.118-.236,1.3,1.3,0,0,0-.428-.17l-.48-.118a1.629,1.629,0,0,1-.753-.354.785.785,0,0,1-.244-.591.872.872,0,0,1,.325-.7,1.341,1.341,0,0,1,.864-.266,1.675,1.675,0,0,1,.48.074,1.608,1.608,0,0,1,.443.236l.14-.244h.377v1.137h-.443a1.069,1.069,0,0,0-.347-.554.928.928,0,0,0-.6-.2.571.571,0,0,0-.362.1.316.316,0,0,0-.133.266.279.279,0,0,0,.089.207.628.628,0,0,0,.273.126l.591.14a1.832,1.832,0,0,1,.834.377.8.8,0,0,1,.258.628.885.885,0,0,1-.332.731,1.423,1.423,0,0,1-.916.266,1.744,1.744,0,0,1-.532-.081,1.881,1.881,0,0,1-.509-.266l-.118.273h-.413Zm-2.341-2.651H72V55.98h.583v-.1a1.493,1.493,0,0,1,.281-.989,1.027,1.027,0,0,1,.834-.332,1.131,1.131,0,0,1,.687.192.57.57,0,0,1,.258.495.5.5,0,0,1-.118.354.412.412,0,0,1-.325.133.449.449,0,0,1-.3-.1.374.374,0,0,1-.118-.273.341.341,0,0,1,.074-.229.393.393,0,0,1,.207-.126.34.34,0,0,0-.126-.066.476.476,0,0,0-.148-.022.373.373,0,0,0-.332.14.937.937,0,0,0-.1.5v.436h.665v.458h-.665v1.787a.473.473,0,0,0,.074.325.468.468,0,0,0,.3.066h.3v.436H71.993v-.436h.185a.544.544,0,0,0,.325-.066c.052-.044.074-.155.074-.325v-1.8Zm-2.88,0h-.583V55.98H69.7v-.1a1.493,1.493,0,0,1,.281-.989,1.027,1.027,0,0,1,.834-.332,1.131,1.131,0,0,1,.687.192.57.57,0,0,1,.258.495.5.5,0,0,1-.118.354.412.412,0,0,1-.325.133.449.449,0,0,1-.3-.1.374.374,0,0,1-.118-.273.341.341,0,0,1,.074-.229.393.393,0,0,1,.207-.126.34.34,0,0,0-.126-.066.476.476,0,0,0-.148-.022.373.373,0,0,0-.332.14.937.937,0,0,0-.1.5v.436h.665v.458h-.665v1.787a.473.473,0,0,0,.074.325.468.468,0,0,0,.3.066h.3v.436H69.113v-.436H69.3a.544.544,0,0,0,.325-.066c.052-.044.074-.155.074-.325v-1.8Zm-5.191.421a2.084,2.084,0,0,0,.369,1.322,1.319,1.319,0,0,0,2.023,0,2.581,2.581,0,0,0,0-2.636,1.214,1.214,0,0,0-1.012-.473,1.2,1.2,0,0,0-1.012.473,2.061,2.061,0,0,0-.369,1.314Zm-1.034,0a2.191,2.191,0,0,1,.665-1.669,2.708,2.708,0,0,1,3.485,0,2.447,2.447,0,0,1-.007,3.345,2.708,2.708,0,0,1-3.485,0,2.23,2.23,0,0,1-.657-1.676Zm118.2-20.8a1.955,1.955,0,0,0-.31-1.336,1.91,1.91,0,0,0-1.27-.3h-.812V32.6h5.722V47.423a1.908,1.908,0,0,0,.317,1.336,1.924,1.924,0,0,0,1.27.3h.812v1.824h-8.122V49.062h.812a1.9,1.9,0,0,0,1.27-.3,1.955,1.955,0,0,0,.31-1.336V36.06ZM169.793,50.893V49.069H170.8a1.9,1.9,0,0,0,1.24-.288,1.953,1.953,0,0,0,.31-1.344V41.486a1.953,1.953,0,0,0-.31-1.344,1.9,1.9,0,0,0-1.24-.288h-1.012V38.031h5.885v9.406a1.955,1.955,0,0,0,.31,1.336,1.876,1.876,0,0,0,1.255.3h.827V50.9h-8.277ZM171.757,34.4a1.992,1.992,0,0,1,2.016-2.016,2,2,0,0,1,1.462.583,1.905,1.905,0,0,1,.591,1.432,2.03,2.03,0,0,1-2.053,2.045,1.918,1.918,0,0,1-1.425-.6,1.989,1.989,0,0,1-.591-1.447ZM152.295,41.73a8.85,8.85,0,0,0,1.528,5.523,5.535,5.535,0,0,0,8.476.007,8.868,8.868,0,0,0,1.521-5.523,8.775,8.775,0,0,0-1.521-5.508,5.563,5.563,0,0,0-8.484,0,8.8,8.8,0,0,0-1.521,5.5Zm-4.3,0a9.264,9.264,0,0,1,2.776-7,11.384,11.384,0,0,1,14.6,0,9.28,9.28,0,0,1,2.761,7,9.292,9.292,0,0,1-2.769,7.014,11.325,11.325,0,0,1-14.6,0,9.292,9.292,0,0,1-2.776-7.014Zm-20.747,2.525,4.142-3.382a3.18,3.18,0,0,0,.384-.369.472.472,0,0,0,.1-.281.3.3,0,0,0-.207-.288,2.248,2.248,0,0,0-.775-.089h-1.462V38.024h8.144v1.824h-.546a3.714,3.714,0,0,0-2.355,1.026h-.015l-2.547,2.075,3.227,4.556a4.217,4.217,0,0,0,1.181,1.174,2.55,2.55,0,0,0,1.359.384h.62v1.824h-7.908V49.062h.916a1.319,1.319,0,0,0,.583-.118c.148-.081.221-.177.221-.3a.918.918,0,0,0-.089-.31,3.605,3.605,0,0,0-.244-.421L129.82,44.75,127.235,46.8v.628a1.9,1.9,0,0,0,.325,1.336,1.924,1.924,0,0,0,1.27.3h.317v1.824h-7.472V49.069h.7a1.924,1.924,0,0,0,1.27-.3,1.908,1.908,0,0,0,.317-1.336V36.067a1.944,1.944,0,0,0-.317-1.344,1.924,1.924,0,0,0-1.27-.3h-.7V32.6h5.56V44.255Zm-9.192,1.292h2.1A6.436,6.436,0,0,1,118.56,49.9a5.576,5.576,0,0,1-4.164,1.462,6.346,6.346,0,0,1-4.821-1.861,6.962,6.962,0,0,1-1.779-5.028,6.663,6.663,0,0,1,1.979-5,7.062,7.062,0,0,1,5.139-1.927,6.258,6.258,0,0,1,3.862,1.13,3.421,3.421,0,0,1,1.506,2.843,2.368,2.368,0,0,1-.591,1.7,2.1,2.1,0,0,1-1.595.635,1.943,1.943,0,0,1-1.425-.517,1.813,1.813,0,0,1-.532-1.373,1.534,1.534,0,0,1,.443-1.1,1.876,1.876,0,0,1,1.152-.539,3.915,3.915,0,0,0-2.68-.967,3.017,3.017,0,0,0-2.606,1.344,6.488,6.488,0,0,0-.938,3.758,5.466,5.466,0,0,0,.856,3.352,3.034,3.034,0,0,0,2.555,1.115,2.81,2.81,0,0,0,2.156-.82,4.473,4.473,0,0,0,.975-2.555ZM100.53,44.159c-.369.177-.886.4-1.543.679q-3.035,1.318-3.035,2.695a1.48,1.48,0,0,0,.443,1.152,1.786,1.786,0,0,0,1.248.406,2.666,2.666,0,0,0,2.112-.9,3.679,3.679,0,0,0,.775-2.488V44.159Zm.052,5.176a5.078,5.078,0,0,1-1.89,1.551,5.949,5.949,0,0,1-2.525.5A3.985,3.985,0,0,1,93.36,50.4a3.264,3.264,0,0,1-1.093-2.525,3.192,3.192,0,0,1,.93-2.392,7.839,7.839,0,0,1,3.19-1.61q.532-.166,1.728-.465a5.618,5.618,0,0,0,1.58-.546,1.971,1.971,0,0,0,.7-.724,2.294,2.294,0,0,0,.207-1.019,1.81,1.81,0,0,0-.724-1.536,3.415,3.415,0,0,0-2.082-.539,5.208,5.208,0,0,0-1.5.192,2.977,2.977,0,0,0-1.1.605h.1a1.878,1.878,0,0,1,1.255.391,1.394,1.394,0,0,1,.458,1.1,1.607,1.607,0,0,1-.524,1.263,1.949,1.949,0,0,1-1.388.48,2.139,2.139,0,0,1-1.565-.591,2.052,2.052,0,0,1-.605-1.536,2.819,2.819,0,0,1,1.447-2.459,6.886,6.886,0,0,1,3.847-.945,10.9,10.9,0,0,1,2.429.244,5.224,5.224,0,0,1,1.735.694A2.83,2.83,0,0,1,103.49,39.8a7.82,7.82,0,0,1,.317,2.658v5.722a1.249,1.249,0,0,0,.155.7.54.54,0,0,0,.473.229.664.664,0,0,0,.665-.517,10.786,10.786,0,0,0,.17-2.481h1.669v.576a6.377,6.377,0,0,1-.79,3.61,2.971,2.971,0,0,1-2.592,1.1,3.354,3.354,0,0,1-1.934-.5,2.757,2.757,0,0,1-1.041-1.558ZM85.239,36.06a1.955,1.955,0,0,0-.31-1.336,1.91,1.91,0,0,0-1.27-.3h-.812V32.6h5.722V47.423a1.908,1.908,0,0,0,.317,1.336,1.924,1.924,0,0,0,1.27.3h.812v1.824H82.847V49.062h.812a1.9,1.9,0,0,0,1.27-.3,1.955,1.955,0,0,0,.31-1.336V36.06ZM69.7,48.848h3.02a5.709,5.709,0,0,0,3.337-.746,2.875,2.875,0,0,0,1-2.459A2.779,2.779,0,0,0,76.024,43.2a6.41,6.41,0,0,0-3.551-.724H69.689v6.372ZM63,50.893V48.818h1.063a2.435,2.435,0,0,0,1.506-.288,2.189,2.189,0,0,0,.288-1.4V36.362a2.189,2.189,0,0,0-.288-1.4,2.45,2.45,0,0,0-1.506-.288H63V32.6H73.551a9.243,9.243,0,0,1,5.095,1.115,3.874,3.874,0,0,1,1.661,3.441,3.665,3.665,0,0,1-.9,2.577,5.552,5.552,0,0,1-2.784,1.462,6.076,6.076,0,0,1,3.323,1.624,4.356,4.356,0,0,1,1.1,3.108,4.158,4.158,0,0,1-1.824,3.817c-1.218.76-3.278,1.144-6.195,1.144H63Z" transform="translate(-16.485 -8.394)" fill="#fff" fill-rule="evenodd"/>
</svg>
