<svg xmlns="http://www.w3.org/2000/svg" width="24.168" height="24.219" viewBox="0 0 24.168 24.219">
  <g id="Group_218" data-name="Group 218" transform="translate(-0.539)">
    <path id="Path_379" data-name="Path 379" d="M24.073,17.774l-3.38-3.38a2.248,2.248,0,0,0-3.742.845A2.3,2.3,0,0,1,14.3,16.688c-2.414-.6-5.673-3.742-6.277-6.277A2.188,2.188,0,0,1,9.468,7.755a2.248,2.248,0,0,0,.845-3.742L6.933.634a2.411,2.411,0,0,0-3.259,0L1.38,2.927C-.913,5.341,1.622,11.739,7.3,17.412s12.071,8.329,14.485,5.915l2.293-2.293a2.411,2.411,0,0,0,0-3.259Z" transform="translate(0)" fill="#343739"/>
  </g>
</svg>
