<svg xmlns="http://www.w3.org/2000/svg" width="86.333" height="108.489" viewBox="0 0 86.333 108.489">
  <g id="Group_55" data-name="Group 55" transform="translate(-52.332 -0.06)">
    <g id="Group_51" data-name="Group 51" transform="translate(76.246 42.522)">
      <path id="Path_363" data-name="Path 363" d="M232.256,343.421a8.742,8.742,0,0,1-8.479,8.727c-.085,0-.17,0-.254,0s-.17,0-.254,0a8.742,8.742,0,0,1-8.479-8.727c0-6.2,5.692-12.035,8.733-14.711C226.566,331.389,232.256,337.225,232.256,343.421Z" transform="translate(-204.277 -301.525)" fill="#343739"/>
      <path id="Path_364" data-name="Path 364" d="M199.441,243.839a14.889,14.889,0,0,0,.076-1.513c0-11.672-12.685-21-13.226-21.391l-1.865-1.352-1.865,1.352c-.54.39-13.226,9.719-13.226,21.391a14.88,14.88,0,0,0,.076,1.513,19.154,19.154,0,0,1-4.232-12.028c0-14.2,14.084-27.123,19.246-31.381,5.164,4.26,19.246,17.18,19.246,31.381A19.154,19.154,0,0,1,199.441,243.839Z" transform="translate(-165.18 -200.43)" fill="#343739"/>
    </g>
    <g id="Group_52" data-name="Group 52" transform="translate(52.332 0.06)">
      <path id="Path_365" data-name="Path 365" d="M134.036,44.052C126.627,28.075,112.588,18,111.992,17.577l-4.266-3.024-.721,5.181a20.068,20.068,0,0,1-2.45,7.012c-.339-.3-.67-.589-.992-.882C96.08,19.12,91.795,12.182,90.832,5.241L90.112.06,85.846,3.086C85.1,3.61,67.6,16.168,58.373,36.077a66.246,66.246,0,0,0-5.792,21.652A50.229,50.229,0,0,0,55.029,79.47a44.9,44.9,0,0,0,16.616,21.06,44.314,44.314,0,0,0,24.828,8.019c18.714,0,35.308-12.289,40.347-29.87a47.307,47.307,0,0,0,1.844-13.268A51.274,51.274,0,0,0,134.036,44.052ZM95.91,99.5c-.138,0-.278.006-.417.006s-.28,0-.417-.006A25.629,25.629,0,0,1,69.889,73.9c0-20.558,22.768-37.3,23.739-38l1.865-1.352L97.357,35.9c.971.7,23.739,17.443,23.739,38A25.629,25.629,0,0,1,95.91,99.5Z" transform="translate(-52.332 -0.06)" fill="#343739"/>
    </g>
    <g id="Group_53" data-name="Group 53" transform="translate(76.246 42.522)">
      <path id="Path_366" data-name="Path 366" d="M232.256,343.421a8.742,8.742,0,0,1-8.479,8.727c-.085,0-.17,0-.254,0s-.17,0-.254,0a8.742,8.742,0,0,1-8.479-8.727c0-6.2,5.692-12.035,8.733-14.711C226.566,331.389,232.256,337.225,232.256,343.421Z" transform="translate(-204.277 -301.525)" fill="#343739"/>
      <path id="Path_367" data-name="Path 367" d="M199.441,243.839a14.889,14.889,0,0,0,.076-1.513c0-11.672-12.685-21-13.226-21.391l-1.865-1.352-1.865,1.352c-.54.39-13.226,9.719-13.226,21.391a14.88,14.88,0,0,0,.076,1.513,19.154,19.154,0,0,1-4.232-12.028c0-14.2,14.084-27.123,19.246-31.381,5.164,4.26,19.246,17.18,19.246,31.381A19.154,19.154,0,0,1,199.441,243.839Z" transform="translate(-165.18 -200.43)" fill="#343739"/>
    </g>
    <g id="Group_54" data-name="Group 54" transform="translate(86.759 69.707)">
      <path id="Path_368" data-name="Path 368" d="M232.256,343.421a8.742,8.742,0,0,1-8.479,8.727c-.085,0-.17,0-.254,0s-.17,0-.254,0a8.742,8.742,0,0,1-8.479-8.727c0-6.2,5.692-12.035,8.733-14.711C226.566,331.389,232.256,337.225,232.256,343.421Z" transform="translate(-214.79 -328.71)" fill="#343739"/>
    </g>
  </g>
</svg>
