<svg xmlns="http://www.w3.org/2000/svg" width="79.747" height="85.241" viewBox="0 0 79.747 85.241">
  <g id="Group_50" data-name="Group 50" transform="translate(-0.5)">
    <path id="Path_361" data-name="Path 361" d="M16,36.27.5,49.837l5.259,6.01,15.292-13.81Zm17.2,32.851H55.352V91.264H33.209Zm0,0" transform="translate(0 -30.232)" fill="#343739"/>
    <path id="Path_362" data-name="Path 362" d="M104.38,0H66.108a7.152,7.152,0,0,0-7.143,7.144v9.478L43.443,30.642v42.5a11.9,11.9,0,0,0,11.66,12.1H104.38a11.9,11.9,0,0,0,11.661-12.1V12.1A11.9,11.9,0,0,0,104.38,0ZM66.108,4.995h30l-7.817,8.89H63.959V7.144a2.151,2.151,0,0,1,2.149-2.149ZM103.8,70.155l-3.532,3.531-7.66-7.66H67.54l-7.66,7.66-3.531-3.531,7.659-7.66V37.428l-7.659-7.659,3.531-3.532L67.539,33.9h25.07l7.658-7.658,3.532,3.532L96.14,37.427V62.5Zm0,0" transform="translate(-35.794)" fill="#343739"/>
  </g>
</svg>
