<svg xmlns="http://www.w3.org/2000/svg" width="86.046" height="86.046" viewBox="0 0 86.046 86.046">
  <g id="Group_57" data-name="Group 57" transform="translate(-2 -2)">
    <path id="Path_371" data-name="Path 371" d="M41.793,65.564A3.076,3.076,0,0,0,40.46,63.9L25.094,54.682a3.027,3.027,0,0,0-2.554-.28L4.1,60.548A3.07,3.07,0,0,0,2,63.462V75.754a3.073,3.073,0,0,0,.9,2.172l9.22,9.22a3.073,3.073,0,0,0,2.173.9H32.731a3.073,3.073,0,0,0,2.172-.9l9.22-9.22a3.073,3.073,0,0,0,.744-3.144Zm1.386-41.437L30.887,33.345A3.073,3.073,0,0,0,29.719,35.2L26.646,50.567a3.073,3.073,0,0,0,1.638,3.35l12.292,6.146a3.073,3.073,0,0,0,1.374.326H54.242A3.07,3.07,0,0,0,56.7,59.159L65.92,46.867a3.073,3.073,0,0,0,.522-2.588L63.37,31.987a3.079,3.079,0,0,0-1.838-2.111L46.166,23.73a3.067,3.067,0,0,0-2.987.4Zm41.732,35.66A3.073,3.073,0,0,0,81.9,57.316H69.608a3.133,3.133,0,0,0-.845.117L47.251,63.578a3.073,3.073,0,0,0-2.071,3.927l3.073,9.219a3.084,3.084,0,0,0,1.073,1.487l12.292,9.219a3.073,3.073,0,0,0,1.844.615H81.9a3.073,3.073,0,0,0,2.917-2.1l3.073-9.219a3.07,3.07,0,0,0,.1-1.573ZM3.457,56.855a3.064,3.064,0,0,0,2.99.138l12.292-6.146a3.092,3.092,0,0,0,1.377-1.377l6.146-12.292a3.086,3.086,0,0,0,.23-2.12L23.419,22.765A3.079,3.079,0,0,0,19.467,20.6l-9.219,3.073a3.088,3.088,0,0,0-1.586,1.208L2.516,34.1A3.073,3.073,0,0,0,2,35.8V54.242A3.072,3.072,0,0,0,3.457,56.855Zm23.285-29.3a3.073,3.073,0,0,0,4.5,1.663L46.606,20A3.087,3.087,0,0,0,47.94,18.34L51.013,9.12A3.073,3.073,0,0,0,48.7,5.135L33.333,2.061A3.07,3.07,0,0,0,29.984,3.7L23.837,15.992a3.073,3.073,0,0,0-.169,2.345ZM71.71,51.01l9.219,3.073a3.064,3.064,0,0,0,3.952-2.17l3.073-12.292a3.073,3.073,0,0,0-1.607-3.494L80.2,33.054a3.039,3.039,0,0,0-2.345-.163l-9.219,3.073a3.07,3.07,0,0,0-1.945,3.884l3.073,9.219A3.054,3.054,0,0,0,71.71,51.01ZM87.53,15.66,81.384,6.441a3.061,3.061,0,0,0-3.159-1.306L62.859,8.208A3.07,3.07,0,0,0,60.9,9.514l-6.146,9.219a3.073,3.073,0,0,0,.713,4.164l12.292,9.219a3.073,3.073,0,0,0,2.446.553L85.576,29.6a3.073,3.073,0,0,0,2.471-3.012V17.365A3.1,3.1,0,0,0,87.53,15.66Z" transform="translate(0 0)" fill="#343739"/>
  </g>
</svg>
