<svg xmlns="http://www.w3.org/2000/svg" width="79.283" height="99.185" viewBox="0 0 79.283 99.185">
  <g id="Group_237" data-name="Group 237" transform="translate(-19.059)">
    <path id="Path_407" data-name="Path 407" d="M95.732,93.963H94.423V67.84a2.6,2.6,0,0,0,0-5.175V36.519a2.6,2.6,0,0,0,0-5.175V5.221h1.308a2.61,2.61,0,1,0,0-5.221H21.669a2.61,2.61,0,0,0,0,5.221h1.308V31.344a2.6,2.6,0,0,0,0,5.175V62.665a2.6,2.6,0,0,0,0,5.175V93.964H21.669a2.61,2.61,0,0,0,0,5.221H95.732a2.611,2.611,0,0,0,0-5.221ZM78.863,49.9A20.162,20.162,0,1,1,58.7,29.738,20.185,20.185,0,0,1,78.863,49.9ZM32.683,91.84a2.61,2.61,0,1,1-5.221,0v-21.1a2.61,2.61,0,0,1,5.221,0Zm0-32.72a2.61,2.61,0,0,1-5.221,0V38.81a2.61,2.61,0,0,1,5.221,0Zm0-31.717a2.61,2.61,0,1,1-5.221,0V7.135a2.61,2.61,0,0,1,5.221,0Zm35.3,27.437a9.278,9.278,0,1,1-17.846-3.554l6.173-14.227A2.61,2.61,0,0,1,58.7,35.487h0A2.61,2.61,0,0,1,61.1,37.061L67.373,51.57c.023.053.044.107.063.16A9.251,9.251,0,0,1,67.979,54.84Z" fill="#343739"/>
  </g>
</svg>
