<svg xmlns="http://www.w3.org/2000/svg" width="106.907" height="93.961" viewBox="0 0 106.907 93.961">
  <g id="Group_56" data-name="Group 56" transform="translate(0 -31)">
    <path id="Path_369" data-name="Path 369" d="M103.775,217.264a3.132,3.132,0,0,0-3.132,3.132v3.132H84.137a34.42,34.42,0,0,1,0,31.32h16.506v3.132a3.132,3.132,0,0,0,6.264,0V220.4A3.132,3.132,0,0,0,103.775,217.264ZM6.264,223.528V220.4A3.132,3.132,0,1,0,0,220.4v37.585a3.132,3.132,0,0,0,6.264,0v-3.132H22.77a34.42,34.42,0,0,1,0-31.32ZM53.454,211a28.188,28.188,0,1,0,28.188,28.188A28.22,28.22,0,0,0,53.454,211Zm11.073,21.544-2.6,2.6A9.393,9.393,0,0,1,49.4,247.666l-2.6,2.6a3.132,3.132,0,0,1-4.429-4.429l2.6-2.6A9.393,9.393,0,0,1,57.5,230.711l2.6-2.6a3.132,3.132,0,0,1,4.429,4.429Z" transform="translate(0 -142.415)" fill="#343739"/>
    <ellipse id="Ellipse_3" data-name="Ellipse 3" cx="2.811" cy="3.212" rx="2.811" ry="3.212" transform="translate(50.595 93.641)" fill="#343739"/>
    <path id="Path_370" data-name="Path 370" d="M188.585,43.528v-9.4A3.133,3.133,0,0,0,185.452,31H160.4a3.133,3.133,0,0,0-3.132,3.132v9.4Zm3.132,6.264H154.132a3.132,3.132,0,0,0,0,6.264h3.132V66.089a34.42,34.42,0,0,1,31.32,0V56.056h3.132a3.132,3.132,0,0,0,0-6.264Z" transform="translate(-119.471 0)" fill="#343739"/>
  </g>
</svg>
