<svg xmlns="http://www.w3.org/2000/svg" width="171.111" height="309" viewBox="0 0 171.111 309">
  <g id="Group_235" data-name="Group 235" transform="translate(-183.356 -210.609)">
    <path id="Path_402" data-name="Path 402" d="M259.209,250.8c-15.71,24.536-57.615,94.242-57.615,139.709,0,52.9,45.8,76.675,57.615,76.675s57.612-23.776,57.612-76.675c0-45.5-41.9-115.179-57.612-139.709Zm0,230.587c-17.312,0-71.822-27.341-71.822-90.879,0-60.089,63.272-152.757,65.968-156.672l5.855-8.506,5.851,8.506c2.692,3.916,65.964,96.583,65.964,156.672,0,63.538-54.507,90.879-71.815,90.879Z" transform="translate(9.706 35.454)" fill="#ffbf00"/>
    <path id="Path_403" data-name="Path 403" d="M268.915,236.034c-18.01,27.91-71.352,115.37-71.352,172.151,0,68.731,59.241,94.457,71.352,94.457s71.349-25.725,71.349-94.457c0-56.818-53.338-144.251-71.349-172.151Zm0,280.811c-20.627,0-85.559-32.691-85.559-108.66,0-72.381,76.45-184.337,79.7-189.07l5.855-8.506,5.851,8.506c3.254,4.733,79.7,116.689,79.7,189.07,0,75.97-64.932,108.66-85.552,108.66Z" transform="translate(0 0)" fill="#ffbf00"/>
    <path id="Path_404" data-name="Path 404" d="M250.162,265.4c-13.338,21.04-44.805,74.412-44.805,109.441,0,43.528,38.153,60.089,44.8,60.089s44.8-16.562,44.8-60.089c0-35.059-31.467-88.415-44.8-109.441Zm0,183.74c-14.227,0-59.012-22.355-59.012-74.3,0-48.625,50.991-123.3,53.158-126.456l5.855-8.509,5.851,8.509c2.171,3.156,53.154,77.83,53.154,126.456,0,51.945-44.782,74.3-59.006,74.3Z" transform="translate(18.757 70.468)" fill="#161615"/>
    <path id="Path_405" data-name="Path 405" d="M239.832,280.833c-10.281,16.534-30.5,52.054-30.5,75.6,0,30,25.971,41.548,30.5,41.571,4.522-.024,30.5-11.58,30.5-41.571,0-23.582-20.218-59.081-30.5-75.6Zm0,131.387c-13.369,0-44.707-18.981-44.707-55.782,0-35.826,37.264-90.412,38.852-92.719l5.855-8.509,5.851,8.509c1.585,2.307,38.852,56.893,38.852,92.719,0,36.8-31.338,55.782-44.7,55.782Z" transform="translate(28.337 107.389)" fill="#ffbf00"/>
    <path id="Path_406" data-name="Path 406" d="M229.779,262.729c-10.281,16.534-30.5,52.054-30.5,75.6,0,30,25.971,41.548,30.5,41.571,4.526-.024,30.5-11.58,30.5-41.571,0-23.582-20.218-59.081-30.5-75.6Z" transform="translate(38.339 125.493)" fill="#161615"/>
  </g>
</svg>
