<svg xmlns="http://www.w3.org/2000/svg" width="121.888" height="121.574" viewBox="0 0 121.888 121.574">
  <g id="Group_5" data-name="Group 5" transform="translate(-4 -4)">
    <path id="Path_5" data-name="Path 5" d="M123.712,62.768a2.177,2.177,0,0,0-2.177,2.177C118.429,140.017,11.45,140,8.353,64.944A56.656,56.656,0,0,1,64.944,8.353a2.177,2.177,0,0,0,0-4.353A61.012,61.012,0,0,0,4,64.944c3.348,80.849,118.554,80.83,121.889,0A2.177,2.177,0,0,0,123.712,62.768Z" transform="translate(0 0)" fill="#fff"/>
    <path id="Path_6" data-name="Path 6" d="M63.812,16.337V8.989a2.177,2.177,0,0,0-4.353,0v7.348a2.177,2.177,0,0,0,4.353,0Zm-45.3,45.3a2.177,2.177,0,0,0-2.177-2.177H8.989a2.177,2.177,0,0,0,0,4.353h7.346a2.177,2.177,0,0,0,2.177-2.177Zm40.946,45.3v7.344a2.177,2.177,0,1,0,4.353,0v-7.344a2.177,2.177,0,0,0-4.353,0Zm57-45.3a2.177,2.177,0,0,0-2.177-2.177h-7.348a2.177,2.177,0,0,0,0,4.353h7.348A2.177,2.177,0,0,0,116.459,61.636Zm-83.287-21.4a2.185,2.185,0,0,0-2.949,3.117L59.607,82.531a2.19,2.19,0,0,0,3.4.109L121.77,14.077a2.181,2.181,0,0,0-3.047-3.086L61.2,58.924Z" transform="translate(3.309 3.309)" fill="#fff"/>
  </g>
</svg>
