<svg xmlns="http://www.w3.org/2000/svg" width="50" height="50" viewBox="0 0 50 50">
  <g id="twitter-x-seeklogo.com-4" transform="translate(-0.44)">
    <path id="Subtraction_4" data-name="Subtraction 4" d="M25,50a25.4,25.4,0,0,1-2.556-.129,25.067,25.067,0,0,1-2.482-.379c-.806-.165-1.612-.372-2.4-.616s-1.549-.524-2.3-.841-1.477-.668-2.185-1.053-1.4-.8-2.061-1.252A25.139,25.139,0,0,1,4.27,38.978c-.449-.664-.87-1.358-1.252-2.061s-.739-1.444-1.053-2.185-.6-1.521-.841-2.3-.451-1.59-.616-2.4a25.062,25.062,0,0,1-.379-2.482,25.375,25.375,0,0,1,0-5.112,25.061,25.061,0,0,1,.379-2.482c.165-.805.372-1.611.616-2.4s.524-1.548.841-2.3.668-1.477,1.053-2.185.8-1.4,1.252-2.061A25.139,25.139,0,0,1,11.022,4.27c.664-.449,1.358-.87,2.061-1.252s1.444-.739,2.185-1.053,1.521-.6,2.3-.841,1.591-.451,2.4-.616A25.064,25.064,0,0,1,22.444.129a25.377,25.377,0,0,1,5.112,0,25.065,25.065,0,0,1,2.482.379c.805.165,1.611.372,2.4.616s1.548.524,2.3.841,1.477.668,2.185,1.053,1.4.8,2.061,1.252a25.139,25.139,0,0,1,6.753,6.753c.449.664.87,1.358,1.252,2.061s.739,1.444,1.053,2.185.6,1.521.841,2.3.451,1.59.616,2.4a25.066,25.066,0,0,1,.379,2.482,25.375,25.375,0,0,1,0,5.112,25.069,25.069,0,0,1-.379,2.482c-.165.805-.372,1.612-.616,2.4s-.524,1.548-.841,2.3-.668,1.477-1.053,2.185-.8,1.4-1.252,2.061a25.139,25.139,0,0,1-6.753,6.753c-.664.449-1.358.87-2.061,1.252s-1.444.739-2.185,1.053-1.521.6-2.3.841-1.59.451-2.4.616a25.067,25.067,0,0,1-2.482.379A25.4,25.4,0,0,1,25,50ZM9.6,10.516,21.55,26.493,9.525,39.484h2.707L22.759,28.11h0l8.506,11.374h9.21L27.853,22.608,39.046,10.516H36.339l-9.7,10.475L18.81,10.516ZM36.495,37.491H32.264L13.58,12.509h4.231L36.495,37.49h0Z" transform="translate(0.44)" fill="#343739"/>
  </g>
</svg>
