<svg id="twitter-x-seeklogo.com-4" xmlns="http://www.w3.org/2000/svg" width="48.359" height="48.358" viewBox="0 0 48.359 48.358">
  <path id="Subtraction_4" data-name="Subtraction 4" d="M24.179,48.358a24.565,24.565,0,0,1-2.472-.125,24.243,24.243,0,0,1-2.4-.366c-.779-.159-1.559-.36-2.317-.6s-1.5-.507-2.221-.813-1.428-.646-2.114-1.018-1.351-.777-1.994-1.211A24.314,24.314,0,0,1,4.129,37.7c-.434-.643-.842-1.313-1.211-1.994S2.2,34.308,1.9,33.591s-.58-1.471-.813-2.221-.436-1.538-.6-2.317a24.239,24.239,0,0,1-.366-2.4,24.542,24.542,0,0,1,0-4.944,24.238,24.238,0,0,1,.366-2.4c.159-.779.36-1.559.6-2.317s.507-1.5.813-2.221.646-1.428,1.018-2.114S3.7,11.3,4.129,10.66A24.314,24.314,0,0,1,10.66,4.129c.643-.434,1.313-.842,1.994-1.211S14.05,2.2,14.768,1.9s1.472-.58,2.221-.813,1.538-.436,2.317-.6a24.242,24.242,0,0,1,2.4-.366,24.544,24.544,0,0,1,4.944,0,24.242,24.242,0,0,1,2.4.366c.779.159,1.559.36,2.317.6s1.5.507,2.221.813,1.428.646,2.114,1.018S37.056,3.7,37.7,4.129a24.313,24.313,0,0,1,6.531,6.531c.434.643.842,1.313,1.211,1.994s.715,1.4,1.018,2.114.58,1.471.813,2.221.436,1.538.6,2.317a24.243,24.243,0,0,1,.366,2.4,24.542,24.542,0,0,1,0,4.944,24.246,24.246,0,0,1-.366,2.4c-.159.779-.36,1.559-.6,2.317s-.507,1.5-.813,2.221-.646,1.428-1.018,2.114-.777,1.351-1.211,1.994A24.314,24.314,0,0,1,37.7,44.229c-.642.434-1.313.841-1.994,1.211s-1.4.715-2.114,1.018-1.471.58-2.221.813-1.538.436-2.317.6a24.243,24.243,0,0,1-2.4.366A24.565,24.565,0,0,1,24.179,48.358ZM9.285,10.17,20.842,25.624,9.212,38.188H11.83l10.183-11h0l8.227,11h8.908L26.939,21.866l10.826-11.7H35.146L25.769,20.3,18.192,10.17ZM35.3,36.26H31.2L13.134,12.1h4.092L35.3,36.26h0Z" transform="translate(0)" fill="#ffca10"/>
</svg>
